<?xml version="1.0" encoding="UTF-8"?>
<svg version="1.1" xmlns="http://www.w3.org/2000/svg" width="360" height="360">
<path d="M0 0 C118.8 0 237.6 0 360 0 C360 118.8 360 237.6 360 360 C241.2 360 122.4 360 0 360 C0 241.2 0 122.4 0 0 Z " fill="#FEFEFE" transform="translate(0,0)"/>
<path d="M0 0 C-0.28167815 8.02782734 -3.07461544 14.62350393 -6.15185547 21.93261719 C-7.8822855 26.15060266 -9.42690836 30.44052186 -10.99487305 34.72094727 C-12.18300791 37.93476811 -13.46304214 40.92608428 -15 44 C-7.08 43.505 -7.08 43.505 1 43 C1 40.36 1 37.72 1 35 C2.5 32.5 2.5 32.5 4 31 C3.96519531 31.83402344 3.93039062 32.66804688 3.89453125 33.52734375 C3.7422132 39.8594228 3.89474512 45.17952758 6.24609375 51.09765625 C7.01708317 53.04310625 7.53260654 54.96252755 8 57 C8 53.99486185 7.48168224 52.29961231 6.5 49.5 C4.7524172 43.93727164 4.70314227 38.78322846 5 33 C5.33 33 5.66 33 6 33 C6.33 36.3 6.66 39.6 7 43 C9.31 43.99 11.62 44.98 14 46 C13.125 49.875 13.125 49.875 12 51 C11.75738335 53.25543624 11.61667867 55.50945523 11.4765625 57.7734375 C10.91023591 60.41938961 10.13079825 61.37303582 8 63 C7.34 63 6.68 63 6 63 C5.79375 63.7425 5.5875 64.485 5.375 65.25 C3.58814055 68.82371889 1.43960007 70.06522496 -2 72 C-2.66 72 -3.32 72 -4 72 C-3.566875 72.98226562 -3.566875 72.98226562 -3.125 73.984375 C-0.2643459 81.01681632 1.00825144 87.40294263 0 95 C-0.66 95.99 -1.32 96.98 -2 98 C-2.66 97.67 -3.32 97.34 -4 97 C-3.01 95.515 -3.01 95.515 -2 94 C-1.00639799 87.57384675 -2.64382403 81.93251449 -5 76 C-5.99 76.495 -5.99 76.495 -7 77 C-7 76.34 -7 75.68 -7 75 C-9.64 75.33 -12.28 75.66 -15 76 C-15 76.66 -15 77.32 -15 78 C-12.69 78.66 -10.38 79.32 -8 80 C-8 81.32 -8 82.64 -8 84 C-8.99 84.495 -8.99 84.495 -10 85 C-10.60779107 87.76432384 -10.95883508 90.53200962 -11.33984375 93.3359375 C-12.09158622 96.36959648 -12.40348678 97.28997311 -15 99 C-22.16712072 101.36362492 -29.64717249 101.8286945 -37.125 102.5625 C-39.60692954 102.81222975 -42.08870682 103.06347846 -44.5703125 103.31640625 C-45.66102051 103.42412354 -46.75172852 103.53184082 -47.87548828 103.64282227 C-56.52822018 104.63195703 -60.92640538 105.61481707 -67.125 111.8125 C-72.34006321 116.79904371 -76.84836376 120.28449847 -84 122 C-84.91007812 122.21914062 -85.82015625 122.43828125 -86.7578125 122.6640625 C-94.83792696 124.28008539 -102.79802631 124.20168788 -111 124 C-111.71484375 122.296875 -111.71484375 122.296875 -112 120 C-110.56640625 117.640625 -110.56640625 117.640625 -108.5625 115.25 C-107.90378906 114.45078125 -107.24507813 113.6515625 -106.56640625 112.828125 C-106.04949219 112.22484375 -105.53257812 111.6215625 -105 111 C-106.65 110.34 -108.3 109.68 -110 109 C-109.45475969 105.066173 -108.40454657 102.7803383 -105.9453125 99.6796875 C-105.33042969 98.89722656 -104.71554688 98.11476563 -104.08203125 97.30859375 C-103.43621094 96.50550781 -102.79039062 95.70242187 -102.125 94.875 C-101.48691406 94.06417969 -100.84882813 93.25335938 -100.19140625 92.41796875 C-93.55633751 84.03755834 -93.55633751 84.03755834 -89 81 C-105.64951557 77.76195628 -122.24914182 75.09124658 -139.125 73.3125 C-140.35822998 73.18101562 -141.59145996 73.04953125 -142.86206055 72.9140625 C-153.68389046 71.08130899 -153.68389046 71.08130899 -163.87011719 73.16210938 C-166.94920248 75.79036286 -168.27478362 78.25615761 -169.125 82.1875 C-170 86 -170 86 -171.9375 87.9375 C-176.12878248 90.09664552 -179.7093881 90.2254208 -184.375 90.3125 C-185.68210937 90.34988281 -186.98921875 90.38726562 -188.3359375 90.42578125 C-192.55857825 89.93509059 -194.08153515 89.02989714 -197 86 C-200.2414026 81.29410828 -199.34508714 75.46265601 -199 70 C-197.96060184 64.89749997 -195.85985426 61.52421476 -192 58 C-187.89400075 57.14288286 -183.99888193 57.9223503 -180 59 C-171.44591152 50.68841247 -171.44591152 50.68841247 -167.34375 39.98046875 C-167.44634917 37.44883426 -167.60483825 34.91872854 -167.82421875 32.39453125 C-168.07866105 27.48096779 -166.7549515 24.01538682 -164 20 C-161.16606069 16.85968887 -159.73610339 16.12045328 -155.5625 15.4375 C-151.11317985 16.14002423 -148.79518392 17.60164481 -146 21 C-141.5778348 27.42660456 -138.31753763 34.02372103 -139 42 C-139.84375 44.234375 -139.84375 44.234375 -141 46 C-141.825 46.268125 -142.65 46.53625 -143.5 46.8125 C-146.42336012 47.84196116 -146.42336012 47.84196116 -147.3125 51.625 C-147.539375 52.73875 -147.76625 53.8525 -148 55 C-143.25565722 54.36875893 -138.61509535 53.54025226 -133.94140625 52.51171875 C-132.58421467 52.21616108 -131.22695268 51.92092654 -129.86962891 51.62597656 C-128.81548798 51.39593933 -128.81548798 51.39593933 -127.74005127 51.16125488 C-116.90416696 48.80376591 -106.07130428 46.54233487 -95.125 44.75 C-94.17206055 44.59208984 -93.21912109 44.43417969 -92.23730469 44.27148438 C-87.65964955 43.53053707 -83.08662077 42.87677729 -78.48046875 42.33984375 C-77.17021729 42.17307129 -77.17021729 42.17307129 -75.83349609 42.00292969 C-74.21590631 41.80053515 -72.59487822 41.62314601 -70.97119141 41.47753906 C-67.93631955 41.08836539 -65.61439649 40.64609657 -63.4621582 38.3828125 C-62.12055643 36.51815028 -62.12055643 36.51815028 -61.03955078 34.60620117 C-59.46273974 32.1698837 -57.75868883 31.67285093 -55 31 C-54.02732178 30.92354248 -53.05464355 30.84708496 -52.05249023 30.76831055 C-48.88810293 30.28066909 -48.88810293 30.28066909 -47.14477539 27.87036133 C-46.63422607 26.9502124 -46.12367676 26.03006348 -45.59765625 25.08203125 C-44.72657227 23.57092773 -44.72657227 23.57092773 -43.83789062 22.02929688 C-42.95907227 20.43698242 -42.95907227 20.43698242 -42.0625 18.8125 C-32.55166301 1.78146632 -32.55166301 1.78146632 -23.5 -0.875 C-16.55521878 -2.68342531 -6.12929348 -4.08619565 0 0 Z " fill="#F8F8F9" transform="translate(269,119)"/>
<path d="M0 0 C-0.28167815 8.02782734 -3.07461544 14.62350393 -6.15185547 21.93261719 C-7.8822855 26.15060266 -9.42690836 30.44052186 -10.99487305 34.72094727 C-12.18300791 37.93476811 -13.46304214 40.92608428 -15 44 C-7.08 43.505 -7.08 43.505 1 43 C1 40.36 1 37.72 1 35 C2.5 32.5 2.5 32.5 4 31 C3.96519531 31.83402344 3.93039062 32.66804688 3.89453125 33.52734375 C3.7422132 39.8594228 3.89474512 45.17952758 6.24609375 51.09765625 C7.01708317 53.04310625 7.53260654 54.96252755 8 57 C8 53.99486185 7.48168224 52.29961231 6.5 49.5 C4.7524172 43.93727164 4.70314227 38.78322846 5 33 C5.33 33 5.66 33 6 33 C6.33 36.3 6.66 39.6 7 43 C9.31 43.99 11.62 44.98 14 46 C13.125 49.875 13.125 49.875 12 51 C11.75738335 53.25543624 11.61667867 55.50945523 11.4765625 57.7734375 C10.91023591 60.41938961 10.13079825 61.37303582 8 63 C7.34 63 6.68 63 6 63 C5.79375 63.7425 5.5875 64.485 5.375 65.25 C3.58814055 68.82371889 1.43960007 70.06522496 -2 72 C-2.66 72 -3.32 72 -4 72 C-3.566875 72.98226562 -3.566875 72.98226562 -3.125 73.984375 C-0.2643459 81.01681632 1.00825144 87.40294263 0 95 C-0.66 95.99 -1.32 96.98 -2 98 C-2.66 97.67 -3.32 97.34 -4 97 C-3.01 95.515 -3.01 95.515 -2 94 C-1.00639799 87.57384675 -2.64382403 81.93251449 -5 76 C-5.99 76.495 -5.99 76.495 -7 77 C-7 76.34 -7 75.68 -7 75 C-9.64 75.33 -12.28 75.66 -15 76 C-15 76.66 -15 77.32 -15 78 C-12.69 78.66 -10.38 79.32 -8 80 C-8 81.32 -8 82.64 -8 84 C-8.99 84.495 -8.99 84.495 -10 85 C-10.60779107 87.76432384 -10.95883508 90.53200962 -11.33984375 93.3359375 C-12.09158622 96.36959648 -12.40348678 97.28997311 -15 99 C-22.16712072 101.36362492 -29.64717249 101.8286945 -37.125 102.5625 C-39.60692954 102.81222975 -42.08870682 103.06347846 -44.5703125 103.31640625 C-45.66102051 103.42412354 -46.75172852 103.53184082 -47.87548828 103.64282227 C-56.52822018 104.63195703 -60.92640538 105.61481707 -67.125 111.8125 C-72.34006321 116.79904371 -76.84836376 120.28449847 -84 122 C-84.91007812 122.21914062 -85.82015625 122.43828125 -86.7578125 122.6640625 C-94.83792696 124.28008539 -102.79802631 124.20168788 -111 124 C-111.71484375 122.296875 -111.71484375 122.296875 -112 120 C-110.56640625 117.640625 -110.56640625 117.640625 -108.5625 115.25 C-107.90378906 114.45078125 -107.24507813 113.6515625 -106.56640625 112.828125 C-106.04949219 112.22484375 -105.53257812 111.6215625 -105 111 C-106.65 110.34 -108.3 109.68 -110 109 C-109.45475969 105.066173 -108.40454657 102.7803383 -105.9453125 99.6796875 C-105.33042969 98.89722656 -104.71554688 98.11476563 -104.08203125 97.30859375 C-103.43621094 96.50550781 -102.79039062 95.70242187 -102.125 94.875 C-101.48691406 94.06417969 -100.84882813 93.25335938 -100.19140625 92.41796875 C-93.55633751 84.03755834 -93.55633751 84.03755834 -89 81 C-105.64951557 77.76195628 -122.24914182 75.09124658 -139.125 73.3125 C-140.35822998 73.18101562 -141.59145996 73.04953125 -142.86206055 72.9140625 C-153.68389046 71.08130899 -153.68389046 71.08130899 -163.87011719 73.16210938 C-166.94920248 75.79036286 -168.27478362 78.25615761 -169.125 82.1875 C-170 86 -170 86 -171.9375 87.9375 C-176.12878248 90.09664552 -179.7093881 90.2254208 -184.375 90.3125 C-185.68210937 90.34988281 -186.98921875 90.38726562 -188.3359375 90.42578125 C-192.55857825 89.93509059 -194.08153515 89.02989714 -197 86 C-200.2414026 81.29410828 -199.34508714 75.46265601 -199 70 C-197.96060184 64.89749997 -195.85985426 61.52421476 -192 58 C-187.89400075 57.14288286 -183.99888193 57.9223503 -180 59 C-171.44591152 50.68841247 -171.44591152 50.68841247 -167.34375 39.98046875 C-167.44634917 37.44883426 -167.60483825 34.91872854 -167.82421875 32.39453125 C-168.07866105 27.48096779 -166.7549515 24.01538682 -164 20 C-161.16606069 16.85968887 -159.73610339 16.12045328 -155.5625 15.4375 C-151.11317985 16.14002423 -148.79518392 17.60164481 -146 21 C-141.5778348 27.42660456 -138.31753763 34.02372103 -139 42 C-139.84375 44.234375 -139.84375 44.234375 -141 46 C-141.825 46.268125 -142.65 46.53625 -143.5 46.8125 C-146.42336012 47.84196116 -146.42336012 47.84196116 -147.3125 51.625 C-147.539375 52.73875 -147.76625 53.8525 -148 55 C-143.25565722 54.36875893 -138.61509535 53.54025226 -133.94140625 52.51171875 C-132.58299074 52.216013 -131.22450821 51.92061502 -129.8659668 51.62548828 C-129.16305511 51.47210999 -128.46014343 51.31873169 -127.7359314 51.16070557 C-113.92639615 48.1540549 -100.11035927 45.49530274 -86.13354492 43.36962891 C-84.05556126 43.00962579 -82.04474706 42.51165679 -80 42 C-78.50298215 41.88666942 -77.0012465 41.82535314 -75.5 41.8125 C-74.37078125 41.79123047 -74.37078125 41.79123047 -73.21875 41.76953125 C-70.75135827 42.02582722 -69.13643744 42.77154847 -67 44 C-67.33 44.66 -67.66 45.32 -68 46 C-67.85691406 46.55171875 -67.71382812 47.1034375 -67.56640625 47.671875 C-66.78319282 50.89115225 -66.9068737 53.94235945 -66.9375 57.25 C-66.94652344 58.51328125 -66.95554688 59.7765625 -66.96484375 61.078125 C-66.98224609 62.52445313 -66.98224609 62.52445313 -67 64 C-62.71 64 -58.42 64 -54 64 C-54 64.33 -54 64.66 -54 65 C-58.62 65.33 -63.24 65.66 -68 66 C-68 65.34 -68 64.68 -68 64 C-68.7425 64.495 -68.7425 64.495 -69.5 65 C-73.17692671 66.47077068 -76.17993682 66.97087985 -80 66 C-82.9777396 64.12744387 -85.66815122 62.07837664 -88.38671875 59.84765625 C-91.04781556 57.96619319 -92.79842365 57.36342218 -96 57 C-95.505 56.01 -95.505 56.01 -95 55 C-92.6859378 54.26924352 -90.35171131 53.59861742 -88 53 C-89.98 53 -91.96 53 -94 53 C-90.31265242 50.54176828 -87.30300029 49.98757384 -83 49 C-90.47384036 49.71179432 -97.65451617 51.09444241 -104.97851562 52.71484375 C-105.82736328 52.89402344 -106.67621094 53.07320312 -107.55078125 53.2578125 C-108.31044189 53.4242627 -109.07010254 53.59071289 -109.8527832 53.76220703 C-112 54 -112 54 -116 53 C-107.42 51.02 -98.84 49.04 -90 47 C-107.5330604 49.80113983 -124.86434618 53.01973949 -142.11328125 57.2421875 C-142.90033447 57.43361328 -143.6873877 57.62503906 -144.49829102 57.82226562 C-145.95525382 58.17991105 -147.41034821 58.5452943 -148.86303711 58.91992188 C-152.12616233 59.72736102 -153.73686547 60.08771151 -157 59 C-156.401875 58.4225 -155.80375 57.845 -155.1875 57.25 C-151.46618687 53.42236364 -148.42789151 49.25810227 -146.375 44.3125 C-145.92125 43.219375 -145.4675 42.12625 -145 41 C-143.68 41 -142.36 41 -141 41 C-142.82855491 32.41862388 -145.38874844 24.07416771 -153 19 C-156.50260082 18.84516561 -156.50260082 18.84516561 -160 20 C-163.33645286 23.77545982 -164.52566477 27.01948007 -165 32 C-164.01 32.495 -164.01 32.495 -163 33 C-162.34 32.01 -161.68 31.02 -161 30 C-161 31.32 -161 32.64 -161 34 C-160.34 34 -159.68 34 -159 34 C-158.731875 34.61875 -158.46375 35.2375 -158.1875 35.875 C-157.04443152 38.2995233 -157.04443152 38.2995233 -154 40 C-155.27875 40.268125 -156.5575 40.53625 -157.875 40.8125 C-164.67369726 42.99586542 -168.64147916 48.64056623 -173 54 C-171.515 53.505 -171.515 53.505 -170 53 C-171 55 -172 57 -173 59 C-172.01 58.505 -172.01 58.505 -171 58 C-171 62 -171 66 -171 70 C-168.40464112 70.97325958 -166.6442902 71.24623368 -164.02734375 70.24609375 C-161.98704994 69.21259913 -159.99313313 68.12138504 -158 67 C-156.66992085 66.32686429 -155.33747755 65.65831301 -154 65 C-154.495 66.98 -154.495 66.98 -155 69 C-153.6903125 68.97679687 -152.380625 68.95359375 -151.03125 68.9296875 C-135.05168061 68.73882042 -118.75500329 69.04593688 -103 72 C-103 72.33 -103 72.66 -103 73 C-111.91 72.67 -120.82 72.34 -130 72 C-121.65519756 72.90106586 -121.65519756 72.90106586 -113.30957031 73.79443359 C-107.7986456 74.39815381 -102.34658794 75.08173206 -96.890625 76.0703125 C-90.75882209 77.13507389 -84.71301618 77.36879345 -78.5 77.5 C-57.07119949 77.95253368 -57.07119949 77.95253368 -51 82 C-52.34191406 82.03867188 -52.34191406 82.03867188 -53.7109375 82.078125 C-60.81674346 82.41144639 -66.5868192 83.12634886 -73.01171875 86.2578125 C-75 87 -75 87 -78 86 C-85.02189749 89.72113858 -93.96028375 97.59069164 -97 105 C-97.40800889 108.87608446 -97.56178923 111.0870925 -95.5 114.4375 C-95.005 114.953125 -94.51 115.46875 -94 116 C-95.98 116 -97.96 116 -100 116 C-98.87465895 117.35618499 -98.87465895 117.35618499 -95.9375 117.0625 C-94.968125 117.041875 -93.99875 117.02125 -93 117 C-93 117.33 -93 117.66 -93 118 C-94.485 118.495 -94.485 118.495 -96 119 C-94.35 119 -92.7 119 -91 119 C-92.98 119.99 -92.98 119.99 -95 121 C-92.45417255 120.43157297 -89.91440285 119.84593692 -87.375 119.25 C-86.66214844 119.09273438 -85.94929688 118.93546875 -85.21484375 118.7734375 C-79.6609417 117.44865352 -75.35980779 115.35980779 -71.25 111.25 C-70.63125 110.63125 -70.63125 110.63125 -70 110 C-69.34 110 -68.68 110 -68 110 C-68 109.34 -68 108.68 -68 108 C-66.6015625 106.58984375 -66.6015625 106.58984375 -64.625 104.9375 C-60.47079964 101.41048797 -56.42582271 97.77986783 -52.39453125 94.11328125 C-49.99011391 91.99127508 -47.51988903 89.98279012 -45 88 C-45.268125 88.66 -45.53625 89.32 -45.8125 90 C-47.25705047 93.64939067 -48.62871178 97.32245433 -50 101 C-40.71404992 100.70890439 -30.93399399 100.26665094 -24 93.3125 C-23.34 92.549375 -22.68 91.78625 -22 91 C-21.34 90.67 -20.68 90.34 -20 90 C-18.77421465 86.32264395 -19.53403272 85.44933477 -21 82 C-21 81.01 -21 80.02 -21 79 C-24.96 79 -28.92 79 -33 79 C-32.01 78.67 -31.02 78.34 -30 78 C-30 77.34 -30 76.68 -30 76 C-27.36 76 -24.72 76 -22 76 C-22.04640625 75.39671875 -22.0928125 74.7934375 -22.140625 74.171875 C-22.43363447 67.6838082 -22.43363447 67.6838082 -20.375 64.4375 C-17.21067025 62.52224778 -15.64836596 62.34329413 -12 63 C-9.62260004 64.46426225 -8.0060961 65.9939039 -6 68 C-6 68.66 -6 69.32 -6 70 C-1.49465137 67.80820878 0.16250657 65.64208867 2 61 C2 60.01 2 59.02 2 58 C-4.22593802 54.42774048 -8.76981738 52.15647869 -16 53 C-19.36821272 53.89797113 -19.36821272 53.89797113 -22 55 C-22.45375 54.525625 -22.9075 54.05125 -23.375 53.5625 C-24.93258204 51.90972192 -24.93258204 51.90972192 -27 51 C-27.5775 49.88625 -28.155 48.7725 -28.75 47.625 C-30.94004766 43.76672109 -32.64567277 42.3750507 -37 41 C-41.32818457 40.47896705 -45.64550062 40.18735977 -50 40 C-50 39.67 -50 39.34 -50 39 C-47.79229195 38.91834504 -45.58369575 38.86051512 -43.375 38.8125 C-42.14523438 38.77769531 -40.91546875 38.74289063 -39.6484375 38.70703125 C-34.62149335 39.11069379 -31.3992618 40.78485159 -27.625 44.0625 C-26 46 -26 46 -26 48 C-23.69 48 -21.38 48 -19 48 C-18.83781982 47.39994141 -18.67563965 46.79988281 -18.50854492 46.18164062 C-16.6585533 39.65270396 -14.19206604 33.63572604 -11.3125 27.5 C-10.49279033 25.74111909 -9.67621463 23.98077308 -8.86328125 22.21875 C-8.50532471 21.45498047 -8.14736816 20.69121094 -7.77856445 19.90429688 C-6.87385375 18.03434227 -6.87385375 18.03434227 -7 16 C-8.98 20.455 -8.98 20.455 -11 25 C-12.35304209 20.94087374 -11.15216503 19.22850409 -9.5625 15.3125 C-8.85287109 13.54326172 -8.85287109 13.54326172 -8.12890625 11.73828125 C-7.75636719 10.83464844 -7.38382813 9.93101562 -7 9 C-9.08428209 11.08428209 -9.87841364 14.31794565 -11 17 C-12 14 -12 14 -12 12 C-13.32 14.31 -14.64 16.62 -16 19 C-16.33 19 -16.66 19 -17 19 C-17.37125 17.6078125 -17.37125 17.6078125 -17.75 16.1875 C-18.79323253 13.05798848 -18.79323253 13.05798848 -20.5625 11.0625 C-24.53954357 9.32891691 -27.93327532 9.54562897 -32 11 C-37.52428334 15.41719012 -41.25935494 22.0807375 -45 28 C-46 25 -46 25 -45.21484375 23.10229492 C-43.8222725 20.7890616 -42.42594604 18.48037724 -41 16.1875 C-40.52949219 15.39279297 -40.05898437 14.59808594 -39.57421875 13.77929688 C-34.89725397 6.15874375 -29.77207757 0.75825286 -20.96484375 -1.53515625 C-14.36396063 -2.57007732 -5.69341114 -3.79560743 0 0 Z " fill="#244897" transform="translate(269,119)"/>
<path d="M0 0 C1.3274855 3.98245651 -0.00092171 6.44789543 -1.4375 10.1875 C-1.68048828 10.84169922 -1.92347656 11.49589844 -2.17382812 12.16992188 C-2.7743293 13.78303286 -3.38609203 15.3919435 -4 17 C-2.68 14.36 -1.36 11.72 0 9 C1.18576435 12.55729306 0.80644427 13.04929492 -0.73046875 16.31640625 C-1.12169922 17.16396484 -1.51292969 18.01152344 -1.91601562 18.88476562 C-2.33560547 19.76841797 -2.75519531 20.65207031 -3.1875 21.5625 C-3.99562767 23.2919713 -4.80162095 25.02244155 -5.60546875 26.75390625 C-6.0029834 27.61000488 -6.40049805 28.46610352 -6.81005859 29.34814453 C-8.6779093 33.51076135 -10.35105482 37.7467367 -12 42 C-15.1875 42.375 -15.1875 42.375 -19 42 C-21.6875 39.0625 -21.6875 39.0625 -24 36 C-26.16531168 35.05563651 -26.16531168 35.05563651 -28 35 C-27.05125 35.598125 -26.1025 36.19625 -25.125 36.8125 C-22 39 -22 39 -20 42 C-20 42.99 -20 43.98 -20 45 C-18.35 45.66 -16.7 46.32 -15 47 C-15.25 48.875 -15.25 48.875 -16 51 C-18.0625 52.25 -18.0625 52.25 -20 53 C-20.33 52.67 -20.66 52.34 -21 52 C-21.99 52.99 -22.98 53.98 -24 55 C-24.33 54.67 -24.66 54.34 -25 54 C-25.51949219 54.51691406 -26.03898437 55.03382813 -26.57421875 55.56640625 C-27.27160156 56.22511719 -27.96898437 56.88382813 -28.6875 57.5625 C-29.37199219 58.22378906 -30.05648437 58.88507813 -30.76171875 59.56640625 C-33 61 -33 61 -35.30859375 60.62304688 C-36.64083984 60.31463867 -36.64083984 60.31463867 -38 60 C-39.76431224 59.79737964 -41.53166562 59.62002933 -43.30078125 59.46484375 C-44.27724609 59.37783203 -45.25371094 59.29082031 -46.25976562 59.20117188 C-47.26716797 59.11416016 -48.27457031 59.02714844 -49.3125 58.9375 C-50.33923828 58.84662109 -51.36597656 58.75574219 -52.42382812 58.66210938 C-54.94901351 58.43895346 -57.4743938 58.21833289 -60 58 C-61.36016094 53.91951718 -60.97208843 50.17901445 -60.83984375 45.91015625 C-60.99938472 43.01118017 -61.49804156 41.44436373 -63 39 C-62.01 38.505 -62.01 38.505 -61 38 C-62.32 37.34 -63.64 36.68 -65 36 C-65 35.67 -65 35.34 -65 35 C-63.4221875 34.9690625 -63.4221875 34.9690625 -61.8125 34.9375 C-57.1497676 33.79092646 -56.59511108 32.50593426 -54.17578125 28.65234375 C-52.46939156 26.25432767 -50.81798781 25.6873141 -48 25 C-46.453125 24.814375 -46.453125 24.814375 -44.875 24.625 C-41.87588918 24.26414855 -41.87588918 24.26414855 -40.125 21.9375 C-39.75375 21.298125 -39.3825 20.65875 -39 20 C-38.67 20.33 -38.34 20.66 -38 21 C-37.56429687 20.27554688 -37.12859375 19.55109375 -36.6796875 18.8046875 C-28.25948262 5.13552373 -28.25948262 5.13552373 -22.8359375 3.24609375 C-19.57860952 2.64147267 -17.14138834 2.43406162 -14.125 3.9296875 C-10.89077216 6.43310424 -10.00118833 7.99524668 -9 12 C-7.35 8.7 -5.7 5.4 -4 2 C-3 5 -3 5 -3 6 C-2.01 4.02 -1.02 2.04 0 0 Z " fill="#566AA9" transform="translate(262,125)"/>
<path d="M0 0 C6.15975281 3.64556799 9.32324169 9.47812634 12 16 C13.01223193 20.23835123 13.72257796 24.08650652 12.15625 28.234375 C11 30 11 30 8.5 30.8125 C5.57663988 31.84196116 5.57663988 31.84196116 4.6875 35.625 C4.460625 36.73875 4.23375 37.8525 4 39 C8.74434278 38.36875893 13.38490465 37.54025226 18.05859375 36.51171875 C19.41700926 36.216013 20.77549179 35.92061502 22.1340332 35.62548828 C22.83694489 35.47210999 23.53985657 35.31873169 24.2640686 35.16070557 C38.07360385 32.1540549 51.88964073 29.49530274 65.86645508 27.36962891 C67.94443874 27.00962579 69.95525294 26.51165679 72 26 C73.49701785 25.88666942 74.9987535 25.82535314 76.5 25.8125 C77.2528125 25.79832031 78.005625 25.78414062 78.78125 25.76953125 C81.24864173 26.02582722 82.86356256 26.77154847 85 28 C84.67 28.66 84.34 29.32 84 30 C84.14308594 30.55171875 84.28617188 31.1034375 84.43359375 31.671875 C85.21680718 34.89115225 85.0931263 37.94235945 85.0625 41.25 C85.05347656 42.51328125 85.04445312 43.7765625 85.03515625 45.078125 C85.01775391 46.52445313 85.01775391 46.52445313 85 48 C89.29 48 93.58 48 98 48 C98 48.33 98 48.66 98 49 C93.38 49.33 88.76 49.66 84 50 C84 49.34 84 48.68 84 48 C83.2575 48.495 83.2575 48.495 82.5 49 C78.82307329 50.47077068 75.82006318 50.97087985 72 50 C69.0222604 48.12744387 66.33184878 46.07837664 63.61328125 43.84765625 C60.95218444 41.96619319 59.20157635 41.36342218 56 41 C56.495 40.01 56.495 40.01 57 39 C59.3140622 38.26924352 61.64828869 37.59861742 64 37 C62.02 37 60.04 37 58 37 C61.68734758 34.54176828 64.69699971 33.98757384 69 33 C61.52615964 33.71179432 54.34548383 35.09444241 47.02148438 36.71484375 C46.17263672 36.89402344 45.32378906 37.07320312 44.44921875 37.2578125 C43.68955811 37.4242627 42.92989746 37.59071289 42.1472168 37.76220703 C40 38 40 38 36 37 C44.58 35.02 53.16 33.04 62 31 C44.4669396 33.80113983 27.13565382 37.01973949 9.88671875 41.2421875 C9.09966553 41.43361328 8.3126123 41.62503906 7.50170898 41.82226562 C6.04474618 42.17991105 4.58965179 42.5452943 3.13696289 42.91992188 C-0.12616233 43.72736102 -1.73686547 44.08771151 -5 43 C-4.401875 42.4225 -3.80375 41.845 -3.1875 41.25 C0.53381313 37.42236364 3.57210849 33.25810227 5.625 28.3125 C6.07875 27.219375 6.5325 26.12625 7 25 C8.32 25 9.64 25 11 25 C9.17144509 16.41862388 6.61125156 8.07416771 -1 3 C-4.50260082 2.84516561 -4.50260082 2.84516561 -8 4 C-11.33645286 7.77545982 -12.52566477 11.01948007 -13 16 C-12.34 16.33 -11.68 16.66 -11 17 C-10.34 16.01 -9.68 15.02 -9 14 C-9 15.32 -9 16.64 -9 18 C-8.34 18 -7.68 18 -7 18 C-6.731875 18.61875 -6.46375 19.2375 -6.1875 19.875 C-5.04443152 22.2995233 -5.04443152 22.2995233 -2 24 C-3.27875 24.268125 -4.5575 24.53625 -5.875 24.8125 C-12.67369726 26.99586542 -16.64147916 32.64056623 -21 38 C-19.515 37.505 -19.515 37.505 -18 37 C-19 39 -20 41 -21 43 C-20.01 42.505 -20.01 42.505 -19 42 C-19 46 -19 50 -19 54 C-16.40464112 54.97325958 -14.6442902 55.24623368 -12.02734375 54.24609375 C-9.98704994 53.21259913 -7.99313313 52.12138504 -6 51 C-4.66992085 50.32686429 -3.33747755 49.65831301 -2 49 C-2.33 50.32 -2.66 51.64 -3 53 C-1.6903125 52.97679687 -0.380625 52.95359375 0.96875 52.9296875 C16.94831939 52.73882042 33.24499671 53.04593688 49 56 C49 56.33 49 56.66 49 57 C40.09 56.67 31.18 56.34 22 56 C26.62 56.66 31.24 57.32 36 58 C36 58.33 36 58.66 36 59 C16.08222031 58.28533054 16.08222031 58.28533054 6.25 56.9375 C-2.99544397 55.1023947 -2.99544397 55.1023947 -11.80078125 57.0625 C-14.88066128 59.76750203 -16.26132029 62.19390407 -17.125 66.1875 C-18 70 -18 70 -19.9375 71.9375 C-24.12878248 74.09664552 -27.7093881 74.2254208 -32.375 74.3125 C-33.68210937 74.34988281 -34.98921875 74.38726562 -36.3359375 74.42578125 C-40.55857825 73.93509059 -42.08153515 73.02989714 -45 70 C-48.2414026 65.29410828 -47.34508714 59.46265601 -47 54 C-45.96060184 48.89749997 -43.85985426 45.52421476 -40 42 C-35.89400075 41.14288286 -31.99888193 41.9223503 -28 43 C-19.44591152 34.68841247 -19.44591152 34.68841247 -15.34375 23.98046875 C-15.44634917 21.44883426 -15.60483825 18.91872854 -15.82421875 16.39453125 C-16.07866105 11.48096779 -14.7549515 8.01538682 -12 4 C-8.29790325 -0.10232342 -5.4511678 -0.86071071 0 0 Z " fill="#263E8B" transform="translate(117,135)"/>
<path d="M0 0 C-0.33 0.99 -0.66 1.98 -1 3 C-1.22451458 5.22574335 -1.40782878 7.45581519 -1.5625 9.6875 C-1.68818359 11.45673828 -1.68818359 11.45673828 -1.81640625 13.26171875 C-1.87699219 14.16535156 -1.93757813 15.06898438 -2 16 C-1.39671875 15.65195313 -0.7934375 15.30390625 -0.171875 14.9453125 C2 14 2 14 4.75 14.875 C5.4925 15.24625 6.235 15.6175 7 16 C7 17.32 7 18.64 7 20 C6.34 20.33 5.68 20.66 5 21 C4.39220893 23.76432384 4.04116492 26.53200962 3.66015625 29.3359375 C2.90841378 32.36959648 2.59651322 33.28997311 0 35 C-7.16712072 37.36362492 -14.64717249 37.8286945 -22.125 38.5625 C-24.60692954 38.81222975 -27.08870682 39.06347846 -29.5703125 39.31640625 C-30.66102051 39.42412354 -31.75172852 39.53184082 -32.87548828 39.64282227 C-41.52822018 40.63195703 -45.92640538 41.61481707 -52.125 47.8125 C-57.34006321 52.79904371 -61.84836376 56.28449847 -69 58 C-69.91007812 58.21914062 -70.82015625 58.43828125 -71.7578125 58.6640625 C-79.83792696 60.28008539 -87.79802631 60.20168788 -96 60 C-96.71484375 58.296875 -96.71484375 58.296875 -97 56 C-95.56640625 53.640625 -95.56640625 53.640625 -93.5625 51.25 C-92.90378906 50.45078125 -92.24507812 49.6515625 -91.56640625 48.828125 C-91.04949219 48.22484375 -90.53257812 47.6215625 -90 47 C-91.65 46.34 -93.3 45.68 -95 45 C-94.45475969 41.066173 -93.40454657 38.7803383 -90.9453125 35.6796875 C-90.33042969 34.89722656 -89.71554688 34.11476562 -89.08203125 33.30859375 C-88.43621094 32.50550781 -87.79039062 31.70242187 -87.125 30.875 C-86.48691406 30.06417969 -85.84882813 29.25335938 -85.19140625 28.41796875 C-78.55633751 20.03755834 -78.55633751 20.03755834 -74 17 C-84.30215986 14.96935088 -94.57530863 13.27313041 -105 12 C-101.51014593 9.8188412 -99.04739126 9.87303709 -95 10.25 C-93.96875 10.33765625 -92.9375 10.4253125 -91.875 10.515625 C-88.66234439 10.91720695 -85.527344 11.44020133 -82.34375 12.015625 C-76.05251627 13.08701505 -69.87118672 13.3654532 -63.5 13.5 C-42.07119949 13.95253368 -42.07119949 13.95253368 -36 18 C-36.89460938 18.02578125 -37.78921875 18.0515625 -38.7109375 18.078125 C-45.81674346 18.41144639 -51.5868192 19.12634886 -58.01171875 22.2578125 C-60 23 -60 23 -63 22 C-70.02189749 25.72113858 -78.96028375 33.59069164 -82 41 C-82.40800889 44.87608446 -82.56178923 47.0870925 -80.5 50.4375 C-80.005 50.953125 -79.51 51.46875 -79 52 C-80.98 52 -82.96 52 -85 52 C-83.87465895 53.35618499 -83.87465895 53.35618499 -80.9375 53.0625 C-79.968125 53.041875 -78.99875 53.02125 -78 53 C-78 53.33 -78 53.66 -78 54 C-79.485 54.495 -79.485 54.495 -81 55 C-79.35 55 -77.7 55 -76 55 C-77.32 55.66 -78.64 56.32 -80 57 C-77.45417255 56.43157297 -74.91440285 55.84593692 -72.375 55.25 C-71.66214844 55.09273437 -70.94929688 54.93546875 -70.21484375 54.7734375 C-64.6609417 53.44865352 -60.35980779 51.35980779 -56.25 47.25 C-55.8375 46.8375 -55.425 46.425 -55 46 C-54.34 46 -53.68 46 -53 46 C-53 45.34 -53 44.68 -53 44 C-51.6015625 42.58984375 -51.6015625 42.58984375 -49.625 40.9375 C-45.47079964 37.41048797 -41.42582271 33.77986783 -37.39453125 30.11328125 C-34.99011391 27.99127508 -32.51988903 25.98279012 -30 24 C-30.268125 24.66 -30.53625 25.32 -30.8125 26 C-32.25705047 29.64939067 -33.62871178 33.32245433 -35 37 C-25.71404992 36.70890439 -15.93399399 36.26665094 -9 29.3125 C-8.01 28.1678125 -8.01 28.1678125 -7 27 C-6.01 26.505 -6.01 26.505 -5 26 C-4.67 25.34 -4.34 24.68 -4 24 C-2.515 24.495 -2.515 24.495 -1 25 C-1.28875 24.41734375 -1.5775 23.8346875 -1.875 23.234375 C-4.87816562 16.60238425 -6.22947082 10.2771381 -5 3 C-2.7230444 0 -2.7230444 0 0 0 Z " fill="#274792" transform="translate(254,183)"/>
<path d="M0 0 C1.3274855 3.98245651 -0.00092171 6.44789543 -1.4375 10.1875 C-1.68048828 10.84169922 -1.92347656 11.49589844 -2.17382812 12.16992188 C-2.7743293 13.78303286 -3.38609203 15.3919435 -4 17 C-2.68 14.36 -1.36 11.72 0 9 C1.18576435 12.55729306 0.80644427 13.04929492 -0.73046875 16.31640625 C-1.12169922 17.16396484 -1.51292969 18.01152344 -1.91601562 18.88476562 C-2.33560547 19.76841797 -2.75519531 20.65207031 -3.1875 21.5625 C-3.99562767 23.2919713 -4.80162095 25.02244155 -5.60546875 26.75390625 C-6.0029834 27.61000488 -6.40049805 28.46610352 -6.81005859 29.34814453 C-8.6779093 33.51076135 -10.35105482 37.7467367 -12 42 C-15.1875 42.375 -15.1875 42.375 -19 42 C-21.625 39.125 -21.625 39.125 -24 36 C-28.1026605 33.80400089 -32.2485913 33.58463408 -36.8125 33.375 C-37.50537109 33.33632812 -38.19824219 33.29765625 -38.91210938 33.2578125 C-40.60767015 33.16426432 -42.30379712 33.08107636 -44 33 C-42.25726611 27.96430962 -39.50713545 23.58996773 -36.75 19.0625 C-36.28464844 18.27681641 -35.81929687 17.49113281 -35.33984375 16.68164062 C-28.53335299 5.47811933 -28.53335299 5.47811933 -22.65625 3.01953125 C-18.52948524 2.62330202 -15.87051674 2.57859041 -12.5 5.1875 C-10 8 -10 8 -9 12 C-7.35 8.7 -5.7 5.4 -4 2 C-3 5 -3 5 -3 6 C-2.01 4.02 -1.02 2.04 0 0 Z " fill="#F8F9F9" transform="translate(262,125)"/>
<path d="M0 0 C1.65 0.33 3.3 0.66 5 1 C5 1.66 5 2.32 5 3 C8.63 2.67 12.26 2.34 16 2 C15.67 3.32 15.34 4.64 15 6 C14.90530947 8.69868022 14.86043186 11.36496692 14.875 14.0625 C14.87113281 14.78244141 14.86726563 15.50238281 14.86328125 16.24414062 C14.86919201 19.42708639 14.98649287 21.95947862 16 25 C19.28779434 24.43313891 20.89463527 23.59753748 23 21 C23.4994461 18.98207174 23.4994461 18.98207174 23.51171875 16.76953125 C23.54716797 15.96708984 23.58261719 15.16464844 23.61914062 14.33789062 C23.64169922 13.50451172 23.66425781 12.67113281 23.6875 11.8125 C23.72166016 10.96751953 23.75582031 10.12253906 23.79101562 9.25195312 C23.87341471 7.16843351 23.93838645 5.08423784 24 3 C27.84853751 4.41721921 29.90850502 5.36740346 32 9 C32 9.99 32 10.98 32 12 C34.475 12.99 34.475 12.99 37 14 C36.75 15.875 36.75 15.875 36 18 C33.9375 19.25 33.9375 19.25 32 20 C31.67 19.67 31.34 19.34 31 19 C30.01 19.99 29.02 20.98 28 22 C27.67 21.67 27.34 21.34 27 21 C26.48050781 21.51691406 25.96101563 22.03382813 25.42578125 22.56640625 C24.72839844 23.22511719 24.03101563 23.88382813 23.3125 24.5625 C22.62800781 25.22378906 21.94351563 25.88507813 21.23828125 26.56640625 C19 28 19 28 16.69140625 27.62304688 C15.35916016 27.31463867 15.35916016 27.31463867 14 27 C12.23568776 26.79737964 10.46833438 26.62002933 8.69921875 26.46484375 C7.72275391 26.37783203 6.74628906 26.29082031 5.74023438 26.20117188 C4.73283203 26.11416016 3.72542969 26.02714844 2.6875 25.9375 C1.66076172 25.84662109 0.63402344 25.75574219 -0.42382812 25.66210938 C-2.94901351 25.43895346 -5.4743938 25.21833289 -8 25 C-9.04976964 21.85069107 -9.10131595 19.61185544 -9.0625 16.3125 C-9.05347656 15.31863281 -9.04445312 14.32476562 -9.03515625 13.30078125 C-9.02355469 12.54152344 -9.01195312 11.78226563 -9 11 C-8.67 11.99 -8.34 12.98 -8 14 C-7.34 13.67 -6.68 13.34 -6 13 C-4.6265365 12.84995027 -3.2471474 12.75161994 -1.8671875 12.68359375 C-0.65869141 12.62075195 -0.65869141 12.62075195 0.57421875 12.55664062 C1.41597656 12.51732422 2.25773438 12.47800781 3.125 12.4375 C4.39923828 12.37272461 4.39923828 12.37272461 5.69921875 12.30664062 C7.79928223 12.20045764 9.89961948 12.09971503 12 12 C12.33 9.36 12.66 6.72 13 4 C11.081875 4.2475 11.081875 4.2475 9.125 4.5 C4.0715842 5.07041736 -0.92062649 5.09543708 -6 5 C-5.34 4.34 -4.68 3.68 -4 3 C-2.68 3 -1.36 3 0 3 C0 2.01 0 1.02 0 0 Z " fill="#1C3796" transform="translate(210,158)"/>
<path d="M0 0 C-0.30719282 8.75499547 -3.58956759 16.07625903 -7 24 C-7.56527026 25.3202414 -8.13038097 26.64055112 -8.6953125 27.9609375 C-9.12585938 28.96382812 -9.55640625 29.96671875 -10 31 C-10.66 31 -11.32 31 -12 31 C-11.79503906 30.39671875 -11.59007812 29.7934375 -11.37890625 29.171875 C-11.10949219 28.37265625 -10.84007812 27.5734375 -10.5625 26.75 C-10.29566406 25.96109375 -10.02882813 25.1721875 -9.75390625 24.359375 C-9.08045292 22.25178012 -8.50849405 20.15246027 -8 18 C-8.99 20.31 -9.98 22.62 -11 25 C-12.35304209 20.94087374 -11.15216503 19.22850409 -9.5625 15.3125 C-9.08941406 14.13300781 -8.61632812 12.95351562 -8.12890625 11.73828125 C-7.75636719 10.83464844 -7.38382812 9.93101562 -7 9 C-9.08428209 11.08428209 -9.87841364 14.31794565 -11 17 C-12 14 -12 14 -12 12 C-13.32 14.31 -14.64 16.62 -16 19 C-16.33 19 -16.66 19 -17 19 C-17.2475 18.071875 -17.495 17.14375 -17.75 16.1875 C-18.79323253 13.05798848 -18.79323253 13.05798848 -20.5625 11.0625 C-24.53954357 9.32891691 -27.93327532 9.54562897 -32 11 C-37.52428334 15.41719012 -41.25935494 22.0807375 -45 28 C-46 25 -46 25 -45.21484375 23.10229492 C-43.8222725 20.7890616 -42.42594604 18.48037724 -41 16.1875 C-40.52949219 15.39279297 -40.05898437 14.59808594 -39.57421875 13.77929688 C-34.89725397 6.15874375 -29.77207757 0.75825286 -20.96484375 -1.53515625 C-14.36396063 -2.57007732 -5.69341114 -3.79560743 0 0 Z " fill="#184097" transform="translate(269,119)"/>
<path d="M0 0 C4.03344691 0.6453515 5.29308403 1.52648824 8.125 4.5 C16.97288291 17.71693675 16.97288291 17.71693675 16.125 24.5 C14.5859375 26.671875 14.5859375 26.671875 12.125 28.5 C9.38817029 28.7911521 7.08559961 28.88322418 4.375 28.75 C3.67761719 28.73195312 2.98023437 28.71390625 2.26171875 28.6953125 C0.54888461 28.64838554 -1.16323824 28.57664605 -2.875 28.5 C-2.215 27.84 -1.555 27.18 -0.875 26.5 C-1.844375 25.943125 -2.81375 25.38625 -3.8125 24.8125 C-6.875 22.5 -6.875 22.5 -7.6875 20 C-7.749375 19.175 -7.81125 18.35 -7.875 17.5 C-8.19983418 16.16457061 -8.5300855 14.83038449 -8.875 13.5 C-8.215 13.5 -7.555 13.5 -6.875 13.5 C-5.885 14.985 -5.885 14.985 -4.875 16.5 C-5.205 15.51 -5.535 14.52 -5.875 13.5 C-6.26707493 9.40583289 -6.4189774 5.73905963 -4.75 1.9375 C-2.875 0.5 -2.875 0.5 0 0 Z " fill="#F5F7F9" transform="translate(81.875,178.5)"/>
<path d="M0 0 C1.03125 0.08765625 2.0625 0.1753125 3.125 0.265625 C6.33765561 0.66720695 9.472656 1.19020133 12.65625 1.765625 C18.94748373 2.83701505 25.12881328 3.1154532 31.5 3.25 C52.92880051 3.70253368 52.92880051 3.70253368 59 7.75 C58.10539062 7.77578125 57.21078125 7.8015625 56.2890625 7.828125 C49.18325654 8.16144639 43.4131808 8.87634886 36.98828125 12.0078125 C35 12.75 35 12.75 32 11.75 C25.78755225 15.04218406 20.81260346 20.7340471 16 25.75 C8 33.75 8 33.75 4.9375 33.8125 C3.968125 33.791875 2.99875 33.77125 2 33.75 C3.31941502 30.04649348 4.92878651 27.25861956 7.375 24.1875 C7.96023437 23.44371094 8.54546875 22.69992188 9.1484375 21.93359375 C11 19.75 11 19.75 13.1640625 17.59765625 C16.01795244 14.72554999 16 13.99083376 16 9.75 C17.65 9.09 19.3 8.43 21 7.75 C17.62856235 5.79169685 14.54615915 5.22351309 10.703125 4.6796875 C9.49785156 4.50566406 8.29257813 4.33164063 7.05078125 4.15234375 C5.79652344 3.97832031 4.54226562 3.80429688 3.25 3.625 C1.98027344 3.44324219 0.71054688 3.26148438 -0.59765625 3.07421875 C-3.73094377 2.62660625 -6.86500317 2.18545144 -10 1.75 C-6.35183544 -0.24399144 -4.17267925 -0.38863189 0 0 Z " fill="#214498" transform="translate(159,193.25)"/>
<path d="M0 0 C5.39325208 3.04234733 8.48438322 8.49608686 11 14 C11.70270297 17.09828126 11.896916 19.80439604 12 23 C11.38640625 23.05027344 10.7728125 23.10054687 10.140625 23.15234375 C7.73834715 23.82969396 7.73834715 23.82969396 6.734375 26.50390625 C6.40953125 27.51324219 6.0846875 28.52257812 5.75 29.5625 C5.24726562 31.08037109 5.24726562 31.08037109 4.734375 32.62890625 C4.49203125 33.41136719 4.2496875 34.19382813 4 35 C3.34 34.01 2.68 33.02 2 32 C2.64309341 28.84448231 3.8598317 26.02583126 5 23 C1.37 23 -2.26 23 -6 23 C-5.34 22.34 -4.68 21.68 -4 21 C-4.66 20.34 -5.32 19.68 -6 19 C-6 18.01 -6 17.02 -6 16 C-6.99 15.67 -7.98 15.34 -9 15 C-9.99 16.485 -9.99 16.485 -11 18 C-11.66 17.34 -12.32 16.68 -13 16 C-12.80392548 10.1177644 -11.79037662 6.68222995 -8 2 C-4.7243083 -0.18379446 -3.79929471 -0.54275639 0 0 Z " fill="#F3F5F7" transform="translate(116,137)"/>
<path d="M0 0 C2.97 0.33 5.94 0.66 9 1 C8.67 1.99 8.34 2.98 8 4 C8.14308594 4.57234375 8.28617188 5.1446875 8.43359375 5.734375 C9.23178753 8.92715013 9.0929116 11.9655474 9.0625 15.25 C9.05347656 16.51328125 9.04445312 17.7765625 9.03515625 19.078125 C9.02355469 20.04234375 9.01195312 21.0065625 9 22 C13.29 22 17.58 22 22 22 C22 22.33 22 22.66 22 23 C17.38 23.33 12.76 23.66 8 24 C8 23.34 8 22.68 8 22 C7.505 22.33 7.01 22.66 6.5 23 C2.82307329 24.47077068 -0.17993682 24.97087985 -4 24 C-6.9777396 22.12744387 -9.66815122 20.07837664 -12.38671875 17.84765625 C-15.04781556 15.96619319 -16.79842365 15.36342218 -20 15 C-19.67 14.34 -19.34 13.68 -19 13 C-16.6859378 12.26924352 -14.35171131 11.59861742 -12 11 C-13.98 11 -15.96 11 -18 11 C-15.31185703 9.20790469 -14.07262689 8.63640243 -11.05859375 8 C-10.31029297 7.835 -9.56199219 7.67 -8.79101562 7.5 C-7.21826745 7.16587259 -5.64534959 6.83254293 -4.07226562 6.5 C0.39846741 5.61788906 0.39846741 5.61788906 4 3 C2.68 2.01 1.36 1.02 0 0 Z " fill="#183887" transform="translate(193,161)"/>
<path d="M0 0 C1.32 0.33 2.64 0.66 4 1 C3.773125 1.7425 3.54625 2.485 3.3125 3.25 C2.69072158 6.05412239 2.69072158 6.05412239 4.48046875 8.171875 C5.23263672 9.07679688 5.23263672 9.07679688 6 10 C11.60120371 7.95528874 16.56677932 6.13767263 21 2 C21.66 2.33 22.32 2.66 23 3 C22.67 3.99 22.34 4.98 22 6 C23.3096875 5.97679687 24.619375 5.95359375 25.96875 5.9296875 C41.94831939 5.73882042 58.24499671 6.04593688 74 9 C74 9.33 74 9.66 74 10 C65.09 9.67 56.18 9.34 47 9 C51.62 9.66 56.24 10.32 61 11 C61 11.33 61 11.66 61 12 C41.08222031 11.28533054 41.08222031 11.28533054 31.25 9.9375 C22.00455603 8.1023947 22.00455603 8.1023947 13.19921875 10.0625 C10.11933872 12.76750203 8.73867971 15.19390407 7.875 19.1875 C7 23 7 23 5.0625 24.9375 C1.17257482 26.94140085 -1.8716655 27.10890682 -6.1875 27.0625 C-7.81751953 27.04896484 -7.81751953 27.04896484 -9.48046875 27.03515625 C-10.31191406 27.02355469 -11.14335938 27.01195312 -12 27 C-12 26.67 -12 26.34 -12 26 C-11.02417969 25.89042969 -10.04835938 25.78085938 -9.04296875 25.66796875 C-7.77066406 25.50941406 -6.49835938 25.35085937 -5.1875 25.1875 C-3.92292969 25.03667969 -2.65835938 24.88585937 -1.35546875 24.73046875 C1.88522596 24.21877403 1.88522596 24.21877403 3.94921875 22.80078125 C5.55411001 20.05039139 5.37536893 18.13452405 5 15 C3.69657583 12.10418538 3.69657583 12.10418538 1.9375 9.375 C-1.06876959 4.50770637 -1.06876959 4.50770637 -0.68359375 1.6640625 C-0.45800781 1.11492187 -0.23242188 0.56578125 0 0 Z " fill="#2847A6" transform="translate(92,182)"/>
<path d="M0 0 C0.99 0 1.98 0 3 0 C2.54554036 1.41791408 2.08625056 2.83428046 1.625 4.25 C1.36976563 5.03890625 1.11453125 5.8278125 0.8515625 6.640625 C0 9 0 9 -2 13 C5.92 12.505 5.92 12.505 14 12 C14 9.36 14 6.72 14 4 C15.5 1.5 15.5 1.5 17 0 C17.05397335 2.4377963 17.09365616 4.87439685 17.125 7.3125 C17.15013672 8.34793945 17.15013672 8.34793945 17.17578125 9.40429688 C17.21217794 13.17135396 17.14378864 14.78431704 15 18 C15.350625 18.61875 15.70125 19.2375 16.0625 19.875 C16.371875 20.57625 16.68125 21.2775 17 22 C16.67 22.66 16.34 23.32 16 24 C15.443125 23.80664062 14.88625 23.61328125 14.3125 23.4140625 C5.83574901 20.5216576 -2.05128371 18.69682627 -11 18 C-11 17.67 -11 17.34 -11 17 C-9.35 17 -7.7 17 -6 17 C-5.81824219 16.35933594 -5.63648438 15.71867188 -5.44921875 15.05859375 C-3.93729955 9.85604103 -2.24999329 4.92855673 0 0 Z " fill="#344688" transform="translate(256,150)"/>
<path d="M0 0 C-0.33 0.99 -0.66 1.98 -1 3 C-1.22451458 5.22574335 -1.40782878 7.45581519 -1.5625 9.6875 C-1.64628906 10.86699219 -1.73007813 12.04648438 -1.81640625 13.26171875 C-1.87699219 14.16535156 -1.93757812 15.06898438 -2 16 C-1.09507812 15.47792969 -1.09507812 15.47792969 -0.171875 14.9453125 C2 14 2 14 4.75 14.875 C5.4925 15.24625 6.235 15.6175 7 16 C7 17.32 7 18.64 7 20 C6.34 20.33 5.68 20.66 5 21 C4.39220893 23.76432384 4.04116492 26.53200962 3.66015625 29.3359375 C2.95015698 32.20114165 2.41422958 33.3308317 0 35 C-3.1875 34.6875 -3.1875 34.6875 -6 34 C-6.625 31.125 -6.625 31.125 -7 28 C-6.34 27.34 -5.68 26.68 -5 26 C-4.67 25.34 -4.34 24.68 -4 24 C-3.01 24.33 -2.02 24.66 -1 25 C-1.28875 24.41734375 -1.5775 23.8346875 -1.875 23.234375 C-4.87816562 16.60238425 -6.22947082 10.2771381 -5 3 C-2.7230444 0 -2.7230444 0 0 0 Z " fill="#2A499D" transform="translate(254,183)"/>
<path d="M0 0 C2.69389171 1.40994332 3.89381225 2.63696008 6 5 C6.1875 8.1875 6.1875 8.1875 5 11 C2.11058309 12.67282031 0.3408643 13 -3 13 C-2.67 13.99 -2.34 14.98 -2 16 C-2.99 16.33 -3.98 16.66 -5 17 C-5.05402274 14.89611431 -5.09280256 12.79183286 -5.125 10.6875 C-5.14820313 9.51574219 -5.17140625 8.34398437 -5.1953125 7.13671875 C-5 4 -5 4 -3 1 C-5.08246104 2.12769144 -5.08246104 2.12769144 -7 4 C-8.4782009 11.14101466 -6.87470164 17.59405518 -3.77734375 24.0390625 C-3.52082031 24.68617188 -3.26429688 25.33328125 -3 26 C-3.33 26.66 -3.66 27.32 -4 28 C-7.05936637 24.24532309 -9 20.91886939 -9 16 C-12.96 16 -16.92 16 -21 16 C-20.01 15.67 -19.02 15.34 -18 15 C-18 14.34 -18 13.68 -18 13 C-15.36 13 -12.72 13 -10 13 C-10.04640625 12.39671875 -10.0928125 11.7934375 -10.140625 11.171875 C-10.43363447 4.6838082 -10.43363447 4.6838082 -8.375 1.4375 C-5.21067025 -0.47775222 -3.64836596 -0.65670587 0 0 Z " fill="#153A99" transform="translate(257,182)"/>
<path d="M0 0 C0 3.29657856 -0.74333269 5.16364428 -2 8.1875 C-2.37125 9.08855469 -2.7425 9.98960937 -3.125 10.91796875 C-3.41375 11.60503906 -3.7025 12.29210937 -4 13 C5.40170123 12.70527582 15.06161293 12.19500628 22.125 5.25 C22.74375 4.5075 23.3625 3.765 24 3 C25.0625 5.375 25.0625 5.375 26 8 C25.67 8.66 25.34 9.32 25 10 C25.99 9.67 26.98 9.34 28 9 C28.495 10.485 28.495 10.485 29 12 C25.39632137 12.48288294 21.7919749 12.96060024 18.1875 13.4375 C17.18267578 13.57220703 16.17785156 13.70691406 15.14257812 13.84570312 C9.21520418 14.62712541 3.2962261 15.2858279 -2.66210938 15.78125 C-5.47005405 16.04398167 -8.2294904 16.47584954 -11 17 C-11.99 15.68 -12.98 14.36 -14 13 C-13.32453125 12.39671875 -12.6490625 11.7934375 -11.953125 11.171875 C-11.06109375 10.37265625 -10.1690625 9.5734375 -9.25 8.75 C-8.36828125 7.96109375 -7.4865625 7.1721875 -6.578125 6.359375 C-4.32133835 4.29407328 -2.14260074 2.18264936 0 0 Z " fill="#173EA0" transform="translate(223,207)"/>
<path d="M0 0 C2.20770805 -0.08165496 4.41630425 -0.13948488 6.625 -0.1875 C7.85476562 -0.22230469 9.08453125 -0.25710937 10.3515625 -0.29296875 C15.37850665 0.11069379 18.6007382 1.78485159 22.375 5.0625 C24 7 24 7 24 9 C25.22976562 9.10957031 26.45953125 9.21914062 27.7265625 9.33203125 C29.35943595 9.49156486 30.99224526 9.65175593 32.625 9.8125 C33.83736328 9.91788086 33.83736328 9.91788086 35.07421875 10.02539062 C40.02098823 10.5281111 43.6065394 11.51213677 48 14 C50.73572585 14.69907414 50.73572585 14.69907414 53 15 C52.01 13.02 51.02 11.04 50 9 C50.66 8.34 51.32 7.68 52 7 C52.66 7 53.32 7 54 7 C57.05267358 13.22745411 57.05267358 13.22745411 56.8125 16.75 C56 19 56 19 54 22 C53.505 21.4225 53.01 20.845 52.5 20.25 C48.24660679 16.42194611 43.70064956 13.78124347 37.875 13.625 C34.26147792 13.97469569 31.35897047 14.65641181 28 16 C27.319375 15.2884375 27.319375 15.2884375 26.625 14.5625 C25.06741796 12.90972192 25.06741796 12.90972192 23 12 C22.4225 10.88625 21.845 9.7725 21.25 8.625 C19.05995234 4.76672109 17.35432723 3.3750507 13 2 C8.67181543 1.47896705 4.35449938 1.18735977 0 1 C0 0.67 0 0.34 0 0 Z " fill="#193E8D" transform="translate(219,158)"/>
<path d="M0 0 C-0.33 2.64 -0.66 5.28 -1 8 C-5.05308333 9.10789535 -9.07111374 9.33731267 -13.25 9.5625 C-13.99507812 9.60568359 -14.74015625 9.64886719 -15.5078125 9.69335938 C-17.338349 9.79896725 -19.16915176 9.89994201 -21 10 C-21.125 6.625 -21.125 6.625 -21 3 C-16.3432613 -1.6567387 -6.23703952 -0.10059741 0 0 Z " fill="#9DA6BB" transform="translate(223,162)"/>
<path d="M0 0 C2.8203125 -0.29296875 2.8203125 -0.29296875 6.125 -0.1875 C7.76855469 -0.14689453 7.76855469 -0.14689453 9.4453125 -0.10546875 C10.28835937 -0.07066406 11.13140625 -0.03585938 12 0 C11.34 1.32 10.68 2.64 10 4 C10 3.01 10 2.02 10 1 C9.34 1 8.68 1 8 1 C8.66 3.31 9.32 5.62 10 8 C10.99 5.36 11.98 2.72 13 0 C13.99 0 14.98 0 16 0 C16 2.31 16 4.62 16 7 C15.01 7.495 15.01 7.495 14 8 C14.99 8 15.98 8 17 8 C17 8.66 17 9.32 17 10 C15.3973218 10.10824843 13.79254252 10.18570645 12.1875 10.25 C11.29417969 10.29640625 10.40085938 10.3428125 9.48046875 10.390625 C7 10 7 10 5.17578125 7.984375 C4.78777344 7.32953125 4.39976562 6.6746875 4 6 C3.34 7.32 2.68 8.64 2 10 C1.34 10 0.68 10 0 10 C0.33 7.36 0.66 4.72 1 2 C0.5978125 3.9490625 0.5978125 3.9490625 0.1875 5.9375 C-0.26953125 8.15234375 -0.26953125 8.15234375 -1 10 C-1.99 10.33 -2.98 10.66 -4 11 C-5.1577506 7.52674819 -5.06866652 4.63932552 -5 1 C-4.34 1 -3.68 1 -3 1 C-2.67 1.66 -2.34 2.32 -2 3 C-1.34 2.01 -0.68 1.02 0 0 Z " fill="#D2D9E2" transform="translate(206,172)"/>
<path d="M0 0 C3.60858971 4.12410252 5.86516639 8.91380859 6.10546875 14.4140625 C5.84486265 18.13527522 5.66341584 20.29378314 3.0625 23.0625 C1 24 1 24 -1 24 C-1.66 26.31 -2.32 28.62 -3 31 C-2.071875 30.855625 -1.14375 30.71125 -0.1875 30.5625 C4.85405316 29.83635037 9.92629204 29.4312193 15 29 C11.58256085 32.41743915 6.67935569 32.66250547 2.0625 33.6875 C1.04736328 33.92533203 0.03222656 34.16316406 -1.01367188 34.40820312 C-1.98755859 34.62798828 -2.96144531 34.84777344 -3.96484375 35.07421875 C-5.30470337 35.37718872 -5.30470337 35.37718872 -6.67163086 35.6862793 C-9 36 -9 36 -12 35 C-11.401875 34.4225 -10.80375 33.845 -10.1875 33.25 C-6.46618687 29.42236364 -3.42789151 25.25810227 -1.375 20.3125 C-0.92125 19.219375 -0.4675 18.12625 0 17 C1.32 17 2.64 17 4 17 C3.54548816 15.26982492 3.08621143 13.54090123 2.625 11.8125 C2.36976562 10.84957031 2.11453125 9.88664063 1.8515625 8.89453125 C1.05233704 6.17789793 0.0968638 3.60862825 -1 1 C-0.67 0.67 -0.34 0.34 0 0 Z " fill="#1E3488" transform="translate(124,143)"/>
<path d="M0 0 C0 0.33 0 0.66 0 1 C-8.91 0.67 -17.82 0.34 -27 0 C-22.38 0.66 -17.76 1.32 -13 2 C-13 2.33 -13 2.66 -13 3 C-25.43518382 2.55381342 -37.68037936 1.79479622 -50 0 C-49.67 -0.66 -49.34 -1.32 -49 -2 C-33.38002643 -4.85675033 -15.49601965 -2.73662297 0 0 Z " fill="#2B4188" transform="translate(166,191)"/>
<path d="M0 0 C-0.30719282 8.75499547 -3.58956759 16.07625903 -7 24 C-7.56527026 25.3202414 -8.13038097 26.64055112 -8.6953125 27.9609375 C-9.34113281 29.46527344 -9.34113281 29.46527344 -10 31 C-10.66 31 -11.32 31 -12 31 C-11.79503906 30.39671875 -11.59007812 29.7934375 -11.37890625 29.171875 C-11.10949219 28.37265625 -10.84007812 27.5734375 -10.5625 26.75 C-10.29566406 25.96109375 -10.02882813 25.1721875 -9.75390625 24.359375 C-9.08045292 22.25178012 -8.50849405 20.15246027 -8 18 C-8.99 20.31 -9.98 22.62 -11 25 C-12.32162611 21.03512166 -11.2745962 19.62600157 -9.6875 15.8125 C-7.70530414 10.89004696 -6.11746814 6.18098864 -5 1 C-1.125 0 -1.125 0 0 0 Z " fill="#1C3787" transform="translate(269,119)"/>
<path d="M0 0 C7.60338916 -0.12285548 15.15779104 0.04357521 22.75 0.4375 C23.91849487 0.49635376 23.91849487 0.49635376 25.1105957 0.55639648 C40.50446433 1.40357147 40.50446433 1.40357147 45 5 C48.65274469 5.72481084 48.65274469 5.72481084 52 6 C52 6.33 52 6.66 52 7 C46.22104924 7.14382004 40.9307808 6.63456897 35.25 5.625 C27.38373636 4.29697024 19.53158019 3.36073931 11.58691406 2.64697266 C7.66324849 2.29049426 3.84845421 1.88810482 0 1 C0 0.67 0 0.34 0 0 Z " fill="#CDD6E7" transform="translate(134,190)"/>
<path d="M0 0 C2 2 2 2 2.3125 5.5 C2.1578125 7.2325 2.1578125 7.2325 2 9 C-1 11 -1 11 -4.625 10.75 C-5.73875 10.5025 -6.8525 10.255 -8 10 C-9 8 -9 8 -9 4 C-9.99 4.495 -9.99 4.495 -11 5 C-9.0954606 -0.71361819 -5.36953802 -0.39051186 0 0 Z " fill="#C5D1E1" transform="translate(197,173)"/>
<path d="M0 0 C0.33 0 0.66 0 1 0 C1 4.29 1 8.58 1 13 C1.66 9.04 2.32 5.08 3 1 C3.33 1 3.66 1 4 1 C4.13539281 3.89740622 4.23426829 6.78845621 4.3125 9.6875 C4.3753418 10.91243164 4.3753418 10.91243164 4.43945312 12.16210938 C4.53003352 16.63678073 4.44817337 18.41936159 1.62109375 22.08203125 C-1 24 -1 24 -3.25 24 C-5 23 -5 23 -6 20 C-6.06970052 17.60509014 -6.08448003 15.20832309 -6.0625 12.8125 C-6.05347656 11.54019531 -6.04445312 10.26789063 -6.03515625 8.95703125 C-6.02355469 7.98121094 -6.01195312 7.00539062 -6 6 C-5.67 6 -5.34 6 -5 6 C-4.34 11.28 -3.68 16.56 -3 22 C-2.86722656 20.74703125 -2.73445312 19.4940625 -2.59765625 18.203125 C-2.41941709 16.55206754 -2.2410236 14.90102673 -2.0625 13.25 C-1.97548828 12.425 -1.88847656 11.6 -1.79882812 10.75 C-1.71181641 9.95078125 -1.62480469 9.1515625 -1.53515625 8.328125 C-1.456604 7.5949707 -1.37805176 6.86181641 -1.29711914 6.10644531 C-1.0026123 4.01852006 -0.54882504 2.03447232 0 0 Z " fill="#D7DCE6" transform="translate(230,160)"/>
<path d="M0 0 C5.61 0 11.22 0 17 0 C17.33 1.32 17.66 2.64 18 4 C18.6469365 5.6744239 19.30959426 7.34302621 20 9 C13.53521127 7.22535211 13.53521127 7.22535211 10.625 6 C6.84806277 4.56116677 2.95280377 3.80950665 -1 3 C-0.67 2.01 -0.34 1.02 0 0 Z " fill="#E7ECF3" transform="translate(253,165)"/>
<path d="M0 0 C0.78515625 1.578125 0.78515625 1.578125 1 4 C-0.42995345 6.46154149 -1.82601903 8.52749974 -3.5625 10.75 C-3.99369141 11.35199219 -4.42488281 11.95398438 -4.86914062 12.57421875 C-6.19140625 14.296875 -6.19140625 14.296875 -9 17 C-12.33984375 17.390625 -12.33984375 17.390625 -15 17 C-13.52848475 12.14399966 -10.64952252 8.45450986 -7 5 C-6.01 4.67 -5.02 4.34 -4 4 C-2.62804426 2.70644173 -1.28817344 1.37701298 0 0 Z " fill="#D0D9ED" transform="translate(176,210)"/>
<path d="M0 0 C3.81095796 1.41192869 6.04057315 2.2988604 8 6 C7.57310003 9.40120304 6.20325079 11.24321189 3.9375 13.75 C3.38964844 14.36359375 2.84179688 14.9771875 2.27734375 15.609375 C1.85582031 16.06828125 1.43429688 16.5271875 1 17 C0.34 16.34 -0.32 15.68 -1 15 C-0.98252112 12.40730017 -0.86231408 9.9474846 -0.625 7.375 C-0.56828125 6.66859375 -0.5115625 5.9621875 -0.453125 5.234375 C-0.31159079 3.48878639 -0.15702613 1.74426327 0 0 Z " fill="#A9B7D9" transform="translate(234,161)"/>
<path d="M0 0 C1.5625 1.25 1.5625 1.25 3 3 C2.6875 5.1875 2.6875 5.1875 2 7 C2.99 6.67 3.98 6.34 5 6 C5.33 6.99 5.66 7.98 6 9 C-2.75003718 10.6039348 -11.10747704 11.26197285 -20 11 C-20 10.67 -20 10.34 -20 10 C-19.19175781 9.81824219 -18.38351563 9.63648438 -17.55078125 9.44921875 C-15.94783203 9.07216797 -15.94783203 9.07216797 -14.3125 8.6875 C-12.72888672 8.32205078 -12.72888672 8.32205078 -11.11328125 7.94921875 C-6.09405573 6.41889027 -2.88262841 4.39980126 0 0 Z " fill="#1B398D" transform="translate(246,210)"/>
<path d="M0 0 C-3.68734758 2.45823172 -6.69699971 3.01242616 -11 4 C-8.69 4 -6.38 4 -4 4 C-8.98733839 7.32489226 -14.50038131 7.17455348 -20.375 7.5625 C-21.62023437 7.64628906 -22.86546875 7.73007813 -24.1484375 7.81640625 C-25.55996094 7.90728516 -25.55996094 7.90728516 -27 8 C-26.01 7.34 -25.02 6.68 -24 6 C-24.99 5.34 -25.98 4.68 -27 4 C-23.8148163 3.32193683 -20.62654387 2.65964849 -17.4375 2 C-16.54224609 1.80921875 -15.64699219 1.6184375 -14.72460938 1.421875 C-9.70738579 0.39270093 -5.12100455 -0.22479032 0 0 Z " fill="#BFC6DB" transform="translate(189,167)"/>
<path d="M0 0 C-2.9872807 1.99152047 -4.7703875 2.55021314 -8.21875 3.2890625 C-9.23324219 3.50820312 -10.24773437 3.72734375 -11.29296875 3.953125 C-12.88044922 4.28570312 -12.88044922 4.28570312 -14.5 4.625 C-15.55832031 4.85445312 -16.61664063 5.08390625 -17.70703125 5.3203125 C-25.57556734 7 -25.57556734 7 -29 7 C-29 7.66 -29 8.32 -29 9 C-31.64 9.33 -34.28 9.66 -37 10 C-37 9.34 -37 8.68 -37 8 C-37.66 7.67 -38.32 7.34 -39 7 C-8.33253396 -0.16338302 -8.33253396 -0.16338302 0 0 Z " fill="#BECAE3" transform="translate(182,165)"/>
<path d="M0 0 C2.85885754 3.60464646 4.14375276 6.38029103 4.1875 11 C4.20167969 11.680625 4.21585937 12.36125 4.23046875 13.0625 C4 15 4 15 2 18 C1.67 15.69 1.34 13.38 1 11 C0.01 11 -0.98 11 -2 11 C-2.33 9.35 -2.66 7.7 -3 6 C-4.98 5.34 -6.96 4.68 -9 4 C-9 3.34 -9 2.68 -9 2 C-6.94921875 1.77213542 -4.8984375 1.54427083 -2.84765625 1.31640625 C-0.98859771 1.18113386 -0.98859771 1.18113386 0 0 Z " fill="#F0F6F3" transform="translate(263,193)"/>
<path d="M0 0 C1.07987157 3.23961472 1 5.58401591 1 9 C0.01 9 -0.98 9 -2 9 C-2.66 8.34 -3.32 7.68 -4 7 C-4.99 7 -5.98 7 -7 7 C-7.99 6.34 -8.98 5.68 -10 5 C-11.65549531 4.61500109 -13.3222433 4.27206865 -15 4 C-14.67 3.34 -14.34 2.68 -14 2 C-9.17574056 0.52819204 -5.07522852 -0.25376143 0 0 Z " fill="#31509E" transform="translate(188,172)"/>
<path d="M0 0 C0 3 0 3 -2 6 C-1.34 5.67 -0.68 5.34 0 5 C0 7.02357323 -0.00162697 9.04790529 -0.0703125 11.0703125 C-0.1229057 13.04631417 -0.06373141 15.02432621 0 17 C0.66 17.66 1.32 18.32 2 19 C1.01 19.99 0.02 20.98 -1 22 C-4.0653951 16.60490463 -4.0653951 16.60490463 -3.75 13.6875 C-3 12 -3 12 -2 11 C-3.32 11 -4.64 11 -6 11 C-6.66 11.66 -7.32 12.32 -8 13 C-8.33 11.68 -8.66 10.36 -9 9 C-8.34 9 -7.68 9 -7 9 C-6.95875 8.443125 -6.9175 7.88625 -6.875 7.3125 C-5.53069626 3.75969726 -2.99025811 2.29041047 0 0 Z " fill="#27478B" transform="translate(98,172)"/>
<path d="M0 0 C0.33 0 0.66 0 1 0 C0.67 2.64 0.34 5.28 0 8 C-4.05308333 9.10789535 -8.07111374 9.33731267 -12.25 9.5625 C-12.99507812 9.60568359 -13.74015625 9.64886719 -14.5078125 9.69335938 C-16.338349 9.79896725 -18.16915176 9.89994201 -20 10 C-20 8.35 -20 6.7 -20 5 C-19.67 5.99 -19.34 6.98 -19 8 C-17.68 8 -16.36 8 -15 8 C-14.67 6.68 -14.34 5.36 -14 4 C-13.67 4.99 -13.34 5.98 -13 7 C-12.34 5.35 -11.68 3.7 -11 2 C-10.34 2 -9.68 2 -9 2 C-9 3.65 -9 5.3 -9 7 C-7.35 7 -5.7 7 -4 7 C-3.67 5.35 -3.34 3.7 -3 2 C-3.99 1.67 -4.98 1.34 -6 1 C-4.35 1 -2.7 1 -1 1 C-1.185625 1.804375 -1.37125 2.60875 -1.5625 3.4375 C-1.7790625 4.7059375 -1.7790625 4.7059375 -2 6 C-1.67 6.33 -1.34 6.66 -1 7 C-0.67 4.69 -0.34 2.38 0 0 Z " fill="#C7D3E8" transform="translate(222,162)"/>
<path d="M0 0 C0.33 0 0.66 0 1 0 C1.33 3.3 1.66 6.6 2 10 C5.465 11.485 5.465 11.485 9 13 C8.11223998 16.69900008 7.05418136 20.34550461 6 24 C1.96604963 20.47453077 1.0114795 16.12763912 0 11 C-0.22275018 7.31534071 -0.18916524 3.68521915 0 0 Z " fill="#284590" transform="translate(274,152)"/>
<path d="M0 0 C-0.33 0.99 -0.66 1.98 -1 3 C-1.43984374 10.95810301 -1.12034513 18.3137489 1 26 C-3.25934985 22.0747168 -4.75618315 17.5682041 -5.29296875 11.9140625 C-5.50264203 3.66691331 -5.50264203 3.66691331 -3.6015625 1.14453125 C-2 0 -2 0 0 0 Z " fill="#DBE3F4" transform="translate(254,183)"/>
<path d="M0 0 C1.25955231 3.77865693 0.48087189 5.03411786 -0.9375 8.6875 C-1.31777344 9.68136719 -1.69804687 10.67523438 -2.08984375 11.69921875 C-2.39019531 12.45847656 -2.69054687 13.21773437 -3 14 C-3.66 14 -4.32 14 -5 14 C-5.99 15.98 -6.98 17.96 -8 20 C-9.24546405 17.50907189 -8.7767578 16.58919267 -8 14 C-8.66 13.67 -9.32 13.34 -10 13 C-8.02 9.37 -6.04 5.74 -4 2 C-3 5 -3 5 -3 6 C-2.01 4.02 -1.02 2.04 0 0 Z " fill="#B3BFDA" transform="translate(262,125)"/>
<path d="M0 0 C0.66 1.32 1.32 2.64 2 4 C1.4121875 4.23203125 0.824375 4.4640625 0.21875 4.703125 C-2.55050525 6.3217742 -3.72596531 8.08894796 -5.5 10.75 C-6.09941406 11.63945312 -6.69882813 12.52890625 -7.31640625 13.4453125 C-7.87199219 14.28835937 -8.42757812 15.13140625 -9 16 C-9.44214844 16.65742188 -9.88429687 17.31484375 -10.33984375 17.9921875 C-11.23440461 19.32288657 -12.11872646 20.66046422 -13 22 C-11.02 22 -9.04 22 -7 22 C-7 22.33 -7 22.66 -7 23 C-9.64 23 -12.28 23 -15 23 C-14.45592643 19.00090555 -13.34820385 16.71531834 -10.83984375 13.57421875 C-10.21142578 12.77822266 -9.58300781 11.98222656 -8.93554688 11.16210938 C-8.27619141 10.34548828 -7.61683594 9.52886719 -6.9375 8.6875 C-6.27427734 7.85154297 -5.61105469 7.01558594 -4.92773438 6.15429688 C-3.29310213 4.09630663 -1.65042355 2.04533159 0 0 Z " fill="#203B8D" transform="translate(174,205)"/>
<path d="M0 0 C0.33 0.99 0.66 1.98 1 3 C1.66 2.67 2.32 2.34 3 2 C4.3734635 1.84995027 5.7528526 1.75161994 7.1328125 1.68359375 C7.93847656 1.64169922 8.74414062 1.59980469 9.57421875 1.55664062 C10.41597656 1.51732422 11.25773438 1.47800781 12.125 1.4375 C12.97449219 1.39431641 13.82398438 1.35113281 14.69921875 1.30664062 C16.79928223 1.20045764 18.89961948 1.09971503 21 1 C21 1.66 21 2.32 21 3 C20.01 3 19.02 3 18 3 C17.896875 3.928125 17.79375 4.85625 17.6875 5.8125 C16.9929808 9.03254358 16.52259061 10.02579865 14 12 C13.67 9.36 13.34 6.72 13 4 C13.99 4.33 14.98 4.66 16 5 C16.33 4.34 16.66 3.68 17 3 C11.06 3.495 11.06 3.495 5 4 C4.34 5.65 3.68 7.3 3 9 C2.67 9 2.34 9 2 9 C2 7.35 2 5.7 2 4 C1.34 4 0.68 4 0 4 C0 2.68 0 1.36 0 0 Z " fill="#7180A7" transform="translate(201,169)"/>
<path d="M0 0 C0.99 0 1.98 0 3 0 C2.85811015 2.54194161 2.71160845 5.08347993 2.5625 7.625 C2.50352539 8.69427734 2.50352539 8.69427734 2.44335938 9.78515625 C2.19690319 13.91803682 1.76529947 17.92269024 1 22 C0.34 21.67 -0.32 21.34 -1 21 C-1.02895976 17.87501937 -1.04678483 14.7500731 -1.0625 11.625 C-1.07087891 10.73554688 -1.07925781 9.84609375 -1.08789062 8.9296875 C-1.09111328 8.07890625 -1.09433594 7.228125 -1.09765625 6.3515625 C-1.10289307 5.56604004 -1.10812988 4.78051758 -1.11352539 3.97119141 C-1 2 -1 2 0 0 Z " fill="#1332A8" transform="translate(227,161)"/>
<path d="M0 0 C1.66416782 3.05575643 2.63282536 6.00998537 3.5 9.375 C4.53627184 13.30441658 5.6520043 17.16339686 7 21 C3.92307943 18.23077149 2.22199993 15.97149976 1 12 C1 11.01 1 10.02 1 9 C-2.96 9 -6.92 9 -11 9 C-10.01 8.67 -9.02 8.34 -8 8 C-8 7.34 -8 6.68 -8 6 C-5.36 6 -2.72 6 0 6 C0 4.02 0 2.04 0 0 Z " fill="#15287C" transform="translate(247,189)"/>
<path d="M0 0 C6.875 1.875 6.875 1.875 8 3 C9.32594105 3.36162029 10.65938457 3.69728039 12 4 C10.02 4.33 8.04 4.66 6 5 C6 5.66 6 6.32 6 7 C2.7 7.33 -0.6 7.66 -4 8 C-3.01 7.34 -2.02 6.68 -1 6 C-3.31 6 -5.62 6 -8 6 C-8 5.67 -8 5.34 -8 5 C-7.01 4.67 -6.02 4.34 -5 4 C-5 3.34 -5 2.68 -5 2 C-3.35 1.67 -1.7 1.34 0 1 C0 0.67 0 0.34 0 0 Z " fill="#9AAACE" transform="translate(174,233)"/>
<path d="M0 0 C0.33 1.32 0.66 2.64 1 4 C1.66 4 2.32 4 3 4 C3.268125 4.61875 3.53625 5.2375 3.8125 5.875 C4.95556848 8.2995233 4.95556848 8.2995233 8 10 C6.5437328 10.36256858 5.08488815 10.71479793 3.625 11.0625 C2.81289062 11.25972656 2.00078125 11.45695313 1.1640625 11.66015625 C-1 12 -1 12 -3 11 C-3 8.03 -3 5.06 -3 2 C-2.01 2.495 -2.01 2.495 -1 3 C-0.67 2.01 -0.34 1.02 0 0 Z " fill="#153889" transform="translate(107,149)"/>
<path d="M0 0 C4.28611184 3.91767815 6.62529964 8.91210785 7.32421875 14.671875 C7.40879814 19.07000312 7.21567809 22.1269947 5 26 C4.34 26 3.68 26 3 26 C3.03480469 24.96101563 3.06960938 23.92203125 3.10546875 22.8515625 C3.29272919 14.72133835 3.09728418 7.66946559 0 0 Z " fill="#6574A8" transform="translate(284,155)"/>
<path d="M0 0 C1.46067199 0.45082469 2.91848032 0.91093537 4.375 1.375 C5.18710938 1.63023437 5.99921875 1.88546875 6.8359375 2.1484375 C9 3 9 3 11 5 C13.32275177 5.40047444 15.65739357 5.7397104 18 6 C18 6.33 18 6.66 18 7 C15.94099907 7.27734712 13.87741707 7.52081942 11.8125 7.75 C10.08966797 7.95882812 10.08966797 7.95882812 8.33203125 8.171875 C4.22645698 7.9600986 2.75231939 7.0062999 0 4 C0 2.68 0 1.36 0 0 Z " fill="#495F99" transform="translate(72,201)"/>
<path d="M0 0 C0.66 0.33 1.32 0.66 2 1 C2 1.99 2 2.98 2 4 C1.34 4 0.68 4 0 4 C0.92998579 12.30422604 1.96927851 20.14767614 5 28 C4.34 28 3.68 28 3 28 C-1.48545385 19.59238185 -3.65248565 11.88698014 -1 2.4375 C-0.67 1.633125 -0.34 0.82875 0 0 Z " fill="#CCD2E0" transform="translate(274,148)"/>
<path d="M0 0 C1.65 0.33 3.3 0.66 5 1 C5 1.66 5 2.32 5 3 C10.445 2.505 10.445 2.505 16 2 C15.34 4.64 14.68 7.28 14 10 C13.67 10 13.34 10 13 10 C13 8.02 13 6.04 13 4 C11.081875 4.2475 11.081875 4.2475 9.125 4.5 C4.0715842 5.07041736 -0.92062649 5.09543708 -6 5 C-5.34 4.34 -4.68 3.68 -4 3 C-2.68 3 -1.36 3 0 3 C0 2.01 0 1.02 0 0 Z " fill="#153083" transform="translate(210,158)"/>
<path d="M0 0 C0.66 0.33 1.32 0.66 2 1 C1.67 1.99 1.34 2.98 1 4 C7.27 4 13.54 4 20 4 C20 4.33 20 4.66 20 5 C15.72931106 5.33520072 11.45842656 5.66784176 7.1875 6 C5.97255859 6.09539062 4.75761719 6.19078125 3.50585938 6.2890625 C2.34248047 6.37929687 1.17910156 6.46953125 -0.01953125 6.5625 C-1.09307861 6.64628906 -2.16662598 6.73007813 -3.27270508 6.81640625 C-5.17847081 6.94469699 -7.08992107 7 -9 7 C-6.03716687 4.61327331 -3.05729491 2.2646629 0 0 Z " fill="#0C2994" transform="translate(113,184)"/>
<path d="M0 0 C1.859375 0.16796875 1.859375 0.16796875 4 1 C7.97939047 8.23413886 9.09308662 16.87811221 8 25 C7.34 25.99 6.68 26.98 6 28 C5.34 27.67 4.68 27.34 4 27 C4.66 26.01 5.32 25.02 6 24 C6.99360201 17.57384675 5.35617597 11.93251449 3 6 C2.01 6.495 2.01 6.495 1 7 C1 6.34 1 5.68 1 5 C0.34 4.67 -0.32 4.34 -1 4 C-0.34 4 0.32 4 1 4 C0.67 2.68 0.34 1.36 0 0 Z " fill="#526494" transform="translate(261,189)"/>
<path d="M0 0 C1.60031344 3.20062687 0.03173691 5.72271806 -1 9 C-0.34 9 0.32 9 1 9 C1.66 6.69 2.32 4.38 3 2 C3.33 2 3.66 2 4 2 C4.66 3.98 5.32 5.96 6 8 C9.63 8.66 13.26 9.32 17 10 C17 10.33 17 10.66 17 11 C10.07 10.67 3.14 10.34 -4 10 C-3.34 9.67 -2.68 9.34 -2 9 C-1.5720382 7.13690908 -1.5720382 7.13690908 -1.4375 5 C-1.09589041 1.09589041 -1.09589041 1.09589041 0 0 Z " fill="#6275B6" transform="translate(207,173)"/>
<path d="M0 0 C0.33 0.66 0.66 1.32 1 2 C0.67 2.66 0.34 3.32 0 4 C-0.39803635 8.97083124 -0.39803635 8.97083124 1.5 13.4375 C1.995 13.953125 2.49 14.46875 3 15 C0.69 15 -1.62 15 -4 15 C-4.63019694 5.98468271 -4.63019694 5.98468271 -2 1.875 C-1.34 1.25625 -0.68 0.6375 0 0 Z " fill="#1E3C88" transform="translate(172,220)"/>
<path d="M0 0 C2.27002476 1.48246515 4.02107308 3.11530769 6 5 C5.67 5.99 5.34 6.98 5 8 C4.34 8 3.68 8 3 8 C2.67 7.01 2.34 6.02 2 5 C-0.50447516 3.78130071 -0.50447516 3.78130071 -3 3 C-3 2.34 -3 1.68 -3 1 C-5.08261145 2.03712176 -5.08261145 2.03712176 -7 4 C-7.81314911 7.60465748 -7.81314911 7.60465748 -8 11 C-9.32789969 8.8128711 -10.04752686 7.52279544 -9.8125 4.9375 C-7.77013325 0.06724084 -5.17472712 -0.8117219 0 0 Z " fill="#2C4590" transform="translate(257,182)"/>
<path d="M0 0 C2.20770805 -0.08165496 4.41630425 -0.13948488 6.625 -0.1875 C7.85476562 -0.22230469 9.08453125 -0.25710937 10.3515625 -0.29296875 C15.37850665 0.11069379 18.6007382 1.78485159 22.375 5.0625 C24 7 24 7 24 9 C26.31 9.33 28.62 9.66 31 10 C31 10.33 31 10.66 31 11 C29.576875 10.9690625 29.576875 10.9690625 28.125 10.9375 C25.09333717 10.77448174 25.09333717 10.77448174 23 12 C22.195625 10.3603125 22.195625 10.3603125 21.375 8.6875 C19.11229733 4.83857277 17.37701577 3.38221551 13 2 C8.67181543 1.47896705 4.35449938 1.18735977 0 1 C0 0.67 0 0.34 0 0 Z " fill="#0D2685" transform="translate(219,158)"/>
<path d="M0 0 C2.45840605 -0.02691685 4.91651882 -0.04679802 7.375 -0.0625 C8.07367188 -0.07087891 8.77234375 -0.07925781 9.4921875 -0.08789062 C14.7734375 -0.11328125 14.7734375 -0.11328125 17 1 C17 2.98 17 4.96 17 7 C16.67 5.68 16.34 4.36 16 3 C15.1646875 3.01740234 15.1646875 3.01740234 14.3125 3.03515625 C9.10221657 3.09676433 4.1562049 2.74999344 -1 2 C-0.67 1.34 -0.34 0.68 0 0 Z " fill="#2C4B9A" transform="translate(251,117)"/>
<path d="M0 0 C3.43742918 -0.05802698 6.87473253 -0.09360486 10.3125 -0.125 C11.28896484 -0.14175781 12.26542969 -0.15851563 13.27148438 -0.17578125 C14.20927734 -0.18222656 15.14707031 -0.18867188 16.11328125 -0.1953125 C16.97735596 -0.20578613 17.84143066 -0.21625977 18.73168945 -0.22705078 C21 0 21 0 24 2 C22.58847656 2.09087891 22.58847656 2.09087891 21.1484375 2.18359375 C19.90320313 2.26738281 18.65796875 2.35117188 17.375 2.4375 C16.14523438 2.51871094 14.91546875 2.59992188 13.6484375 2.68359375 C10.04199565 2.94077287 10.04199565 2.94077287 6.6875 3.59375 C3.66538303 4.05058164 2.51668015 3.64552163 0 2 C0 1.34 0 0.68 0 0 Z " fill="#203D86" transform="translate(194,199)"/>
<path d="M0 0 C1.12642186 3.37926557 0.96344705 3.72928278 -0.43359375 6.79296875 C-0.75263672 7.50517578 -1.07167969 8.21738281 -1.40039062 8.95117188 C-1.74263672 9.68916016 -2.08488281 10.42714844 -2.4375 11.1875 C-2.77587891 11.93708984 -3.11425781 12.68667969 -3.46289062 13.45898438 C-4.2999411 15.30992698 -5.14885404 17.15549666 -6 19 C-6.99 19 -7.98 19 -9 19 C-9.33 19.66 -9.66 20.32 -10 21 C-9.39301257 16.87248551 -7.96189209 13.6678852 -6 10 C-5.34 10 -4.68 10 -4 10 C-3.79503906 9.36191406 -3.59007812 8.72382813 -3.37890625 8.06640625 C-3.10949219 7.24011719 -2.84007812 6.41382813 -2.5625 5.5625 C-2.16224609 4.32693359 -2.16224609 4.32693359 -1.75390625 3.06640625 C-1 1 -1 1 0 0 Z " fill="#B1BED5" transform="translate(262,134)"/>
<path d="M0 0 C0.66 0.99 1.32 1.98 2 3 C1.01 4.485 1.01 4.485 0 6 C0.66 6.33 1.32 6.66 2 7 C-0.35519526 10.79448125 -2.9630133 12.20578369 -7 14 C-5.5 11 -5.5 11 -4 8 C-4.99 8.495 -4.99 8.495 -6 9 C-4.47291037 5.56404834 -2.40072955 2.88087546 0 0 Z " fill="#B5BED1" transform="translate(101,166)"/>
<path d="M0 0 C1.11246094 0.09925781 2.22492188 0.19851562 3.37109375 0.30078125 C6.14617052 0.63705126 8.8333387 1.09065538 11.5625 1.6875 C9.5625 3.6875 9.5625 3.6875 7.0234375 3.69921875 C6.00507813 3.59222656 4.98671875 3.48523438 3.9375 3.375 C2.33261719 3.21257812 2.33261719 3.21257812 0.6953125 3.046875 C-3.02029731 2.62064545 -6.73088889 2.18646688 -10.4375 1.6875 C-6.8440017 -0.60566151 -4.17349198 -0.40046224 0 0 Z " fill="#4A5C94" transform="translate(159.4375,193.3125)"/>
<path d="M0 0 C5.33469334 0.3305686 8.75344752 0.60275801 13 4 C16.65274469 4.72481084 16.65274469 4.72481084 20 5 C20 5.33 20 5.66 20 6 C13.13484138 6.26404456 6.74153283 5.25841946 0 4 C0 2.68 0 1.36 0 0 Z " fill="#BEC5DD" transform="translate(166,191)"/>
<path d="M0 0 C2.18742014 3.2811302 2.54442806 5.33084356 3.125 9.1875 C3.29257813 10.27417969 3.46015625 11.36085937 3.6328125 12.48046875 C3.75398438 13.31191406 3.87515625 14.14335937 4 15 C2.5 13.625 2.5 13.625 1 12 C1 11.34 1 10.68 1 10 C0.34 9.67 -0.32 9.34 -1 9 C-1.73075648 6.6859378 -2.40138258 4.35171131 -3 2 C-2.01 1.34 -1.02 0.68 0 0 Z " fill="#29489E" transform="translate(74,182)"/>
<path d="M0 0 C2.475 0.99 2.475 0.99 5 2 C4.75 3.875 4.75 3.875 4 6 C1.9375 7.25 1.9375 7.25 0 8 C-0.33 7.67 -0.66 7.34 -1 7 C-1.99 7.99 -2.98 8.98 -4 10 C-3.43454163 6.04179141 -2.19097652 3.3340947 0 0 Z " fill="#5974A7" transform="translate(242,170)"/>
<path d="M0 0 C3.8671875 1.71875 3.8671875 1.71875 5.0625 4.25 C4.96728986 8.43924633 2.84608825 10.01507818 0 13 C-1.36421031 10.27157939 -0.87807211 8.39046682 -0.5625 5.375 C-0.40974609 3.87066406 -0.40974609 3.87066406 -0.25390625 2.3359375 C-0.17011719 1.56507813 -0.08632812 0.79421875 0 0 Z " fill="#1B3589" transform="translate(235,163)"/>
<path d="M0 0 C0.71484375 1.703125 0.71484375 1.703125 1 4 C-0.43359375 6.359375 -0.43359375 6.359375 -2.4375 8.75 C-3.42556641 9.94882813 -3.42556641 9.94882813 -4.43359375 11.171875 C-4.95050781 11.77515625 -5.46742188 12.3784375 -6 13 C-6.66 12.34 -7.32 11.68 -8 11 C-5.9785845 6.42521756 -3.68006822 3.38168431 0 0 Z " fill="#D3DCE5" transform="translate(176,210)"/>
<path d="M0 0 C0.928125 0.2784375 0.928125 0.2784375 1.875 0.5625 C4.04160178 1.23686176 4.04160178 1.23686176 6 0 C6 2.64 6 5.28 6 8 C5.01 7.67 4.02 7.34 3 7 C2.01 8.485 2.01 8.485 1 10 C0.34 9.34 -0.32 8.68 -1 8 C-0.96712417 5.27130593 -0.43602229 2.7033382 0 0 Z " fill="#C0CCE1" transform="translate(104,145)"/>
<path d="M0 0 C-1.875 4.75 -1.875 4.75 -3 7 C-5.16874252 6.49396008 -6.99967627 6.00016187 -9 5 C-8.1875 3.0625 -8.1875 3.0625 -7 1 C-4 0 -4 0 0 0 Z " fill="#D8DFEB" transform="translate(218,152)"/>
<path d="M0 0 C0.66 0.99 1.32 1.98 2 3 C1.01 4.32 0.02 5.64 -1 7 C-1.66 6.67 -2.32 6.34 -3 6 C-5.24362573 5.7715451 -5.24362573 5.7715451 -7.125 8 C-7.74375 8.66 -8.3625 9.32 -9 10 C-9 7 -9 7 -7.3125 5 C-4.99685261 2.99727793 -2.6717775 1.48432083 0 0 Z " fill="#748AB6" transform="translate(179,206)"/>
<path d="M0 0 C6.75 0.75 6.75 0.75 9 3 C7.09401557 5.43542455 5.99403725 6.00158196 2.9375 6.8125 C1.4834375 6.9053125 1.4834375 6.9053125 0 7 C-0.66 6.34 -1.32 5.68 -2 5 C-0.35 5 1.3 5 3 5 C3 4.34 3 3.68 3 3 C1.35 3 -0.3 3 -2 3 C-1.34 2.01 -0.68 1.02 0 0 Z " fill="#3958A0" transform="translate(189,161)"/>
<path d="M0 0 C2.85885754 3.60464646 4.14375276 6.38029103 4.1875 11 C4.20167969 11.680625 4.21585937 12.36125 4.23046875 13.0625 C4 15 4 15 2 18 C1.6603981 16.12612523 1.32861309 14.25083303 1 12.375 C0.7215625 10.80878906 0.7215625 10.80878906 0.4375 9.2109375 C0.01284203 6.09425135 -0.07545206 3.14069188 0 0 Z " fill="#B8C0D6" transform="translate(263,193)"/>
<path d="M0 0 C-0.99 3.3 -1.98 6.6 -3 10 C-3.99 9.67 -4.98 9.34 -6 9 C-6 7.35 -6 5.7 -6 4 C-6.99 4.495 -6.99 4.495 -8 5 C-6.44843568 0.34530705 -4.78780941 0 0 0 Z " fill="#A9B2CB" transform="translate(194,173)"/>
<path d="M0 0 C0.33 0.66 0.66 1.32 1 2 C-1.31 2.33 -3.62 2.66 -6 3 C-6.4021875 4.2065625 -6.4021875 4.2065625 -6.8125 5.4375 C-7.4003125 6.7059375 -7.4003125 6.7059375 -8 8 C-8.99 8.33 -9.98 8.66 -11 9 C-10.71180351 5.54164207 -10.21034962 4.21619267 -7.75 1.6875 C-4.7990854 -0.12328851 -3.38489309 -0.38684492 0 0 Z " fill="#D2DBE8" transform="translate(116,137)"/>
<path d="M0 0 C0.33 0.66 0.66 1.32 1 2 C-0.60875 2.0928125 -0.60875 2.0928125 -2.25 2.1875 C-6.13531961 2.66145959 -6.13531961 2.66145959 -8.4375 5.5625 C-8.953125 6.366875 -9.46875 7.17125 -10 8 C-10.66 6.68 -11.32 5.36 -12 4 C-8.41084094 -0.78554541 -5.58334594 -0.37222306 0 0 Z " fill="#1B3182" transform="translate(85,177)"/>
<path d="M0 0 C0.845625 0.06703125 1.69125 0.1340625 2.5625 0.203125 C5.34628293 0.82769168 6.85689881 1.90455175 9 3.75 C6.36 4.08 3.72 4.41 1 4.75 C1 4.09 1 3.43 1 2.75 C-3.29 2.75 -7.58 2.75 -12 2.75 C-7.80616793 -0.04588805 -4.97685631 -0.45520027 0 0 Z " fill="#2C4788" transform="translate(187,169.25)"/>
<path d="M0 0 C0.95530645 3.23275701 1.16460378 6.19675639 1.1875 9.5625 C1.20167969 10.51253906 1.21585937 11.46257812 1.23046875 12.44140625 C1 15 1 15 -1 18 C-1.12375 17.195625 -1.2475 16.39125 -1.375 15.5625 C-1.684375 14.2940625 -1.684375 14.2940625 -2 13 C-2.66 12.67 -3.32 12.34 -4 12 C-3.34 12 -2.68 12 -2 12 C-2.04125 10.7625 -2.0825 9.525 -2.125 8.25 C-2.13658291 4.98362038 -1.8568702 2.7853053 0 0 Z " fill="#3253A7" transform="translate(272,150)"/>
<path d="M0 0 C4.25599681 -0.42559968 7.01309754 -0.41830608 10.375 2.25 C13.76290631 5.79923518 13.76290631 5.79923518 14 9 C11 8 11 8 8.6875 5.5 C5.67224287 2.69510964 4.03307384 2.28137724 0 2 C0 1.34 0 0.68 0 0 Z " fill="#334592" transform="translate(110,135)"/>
<path d="M0 0 C0.99 1.32 1.98 2.64 3 4 C1.55575365 7.23861303 -0.25772247 9.61969163 -2.625 12.25 C-3.25664062 12.95640625 -3.88828125 13.6628125 -4.5390625 14.390625 C-5.02117187 14.92171875 -5.50328125 15.4528125 -6 16 C-6.66 15.34 -7.32 14.68 -8 14 C-7.4225 13.32453125 -6.845 12.6490625 -6.25 11.953125 C-5.5075 11.06109375 -4.765 10.1690625 -4 9.25 C-2.88625 7.92742187 -2.88625 7.92742187 -1.75 6.578125 C0.37441603 3.96773221 0.37441603 3.96773221 0 0 Z " fill="#2C449F" transform="translate(180,205)"/>
<path d="M0 0 C0 3 0 3 -1.5 5.875 C-2.98827546 8.97557388 -3.29690491 10.63507773 -3 14 C-3.66 14 -4.32 14 -5 14 C-5.12375 13.195625 -5.2475 12.39125 -5.375 11.5625 C-5.684375 10.2940625 -5.684375 10.2940625 -6 9 C-6.66 8.67 -7.32 8.34 -8 8 C-5.36 5.36 -2.72 2.72 0 0 Z " fill="#2B4E9A" transform="translate(223,207)"/>
<path d="M0 0 C0.33 0 0.66 0 1 0 C1.34730339 5.29637669 1.34730339 5.29637669 1 8 C-1.83217047 11.02749257 -4.78774969 11.95942937 -8.91796875 12.09765625 C-10.53638672 12.08025391 -10.53638672 12.08025391 -12.1875 12.0625 C-13.81751953 12.04896484 -13.81751953 12.04896484 -15.48046875 12.03515625 C-16.31191406 12.02355469 -17.14335938 12.01195312 -18 12 C-18 11.67 -18 11.34 -18 11 C-17.02417969 10.89042969 -16.04835938 10.78085938 -15.04296875 10.66796875 C-13.77066406 10.50941406 -12.49835938 10.35085937 -11.1875 10.1875 C-9.92292969 10.03667969 -8.65835938 9.88585937 -7.35546875 9.73046875 C-4.06354541 9.01383352 -2.84672978 8.74371281 -1 6 C-0.2730774 2.89160979 -0.2730774 2.89160979 0 0 Z " fill="#112578" transform="translate(98,197)"/>
<path d="M0 0 C0.33 0 0.66 0 1 0 C1.13277344 1.09699219 1.26554688 2.19398438 1.40234375 3.32421875 C1.58062985 4.77865801 1.7590208 6.23308442 1.9375 7.6875 C2.06801758 8.7693457 2.06801758 8.7693457 2.20117188 9.87304688 C2.66313805 13.62010584 3.19167679 17.30792911 4 21 C1.62429964 18.8402724 0.1269802 17.01869696 -1 14 C-0.9765625 10.546875 -0.9765625 10.546875 -0.625 6.75 C-0.51414063 5.48671875 -0.40328125 4.2234375 -0.2890625 2.921875 C-0.19367188 1.95765625 -0.09828125 0.9934375 0 0 Z " fill="#B5B9CB" transform="translate(251,188)"/>
<path d="M0 0 C1.32 0.33 2.64 0.66 4 1 C3.95875 2.11375 3.9175 3.2275 3.875 4.375 C3.58878141 8.04366025 3.58878141 8.04366025 6 10 C5.01 10.99 4.02 11.98 3 13 C-0.09083263 7.56013457 -0.09083263 7.56013457 0.375 4.6875 C0.58125 4.130625 0.7875 3.57375 1 3 C0.67 2.67 0.34 2.34 0 2 C0 1.34 0 0.68 0 0 Z " fill="#3A56A1" transform="translate(94,181)"/>
<path d="M0 0 C0.33 0.99 0.66 1.98 1 3 C-1.4256455 6.63846825 -2.87289214 6.90505302 -7 8 C-7.99 8 -8.98 8 -10 8 C-8.02 5.69 -6.04 3.38 -4 1 C-3.34 1.33 -2.68 1.66 -2 2 C-1.34 1.34 -0.68 0.68 0 0 Z " fill="#E0E5EB" transform="translate(241,176)"/>
<path d="M0 0 C0.66 0 1.32 0 2 0 C0.6744419 3.62276315 -0.94346955 6.63505348 -3.125 9.8125 C-3.66382813 10.60269531 -4.20265625 11.39289063 -4.7578125 12.20703125 C-5.37269531 13.09455078 -5.37269531 13.09455078 -6 14 C-6.33 13.01 -6.66 12.02 -7 11 C-5.63671875 8.30078125 -5.63671875 8.30078125 -3.6875 5.3125 C-3.05199219 4.31863281 -2.41648438 3.32476562 -1.76171875 2.30078125 C-1.18035156 1.54152344 -0.59898437 0.78226563 0 0 Z " fill="#20378F" transform="translate(230,133)"/>
<path d="M0 0 C1.65 1.65 3.3 3.3 5 5 C4.67 5.66 4.34 6.32 4 7 C1.03 6.01 -1.94 5.02 -5 4 C-3.35 2.68 -1.7 1.36 0 0 Z " fill="#91A6C8" transform="translate(268,167)"/>
<path d="M0 0 C2.5 1.375 2.5 1.375 5 3 C5 3.66 5 4.32 5 5 C3.68 5.33 2.36 5.66 1 6 C1 7.32 1 8.64 1 10 C0.34 10 -0.32 10 -1 10 C-1.625 7.125 -1.625 7.125 -2 4 C-1.34 3.34 -0.68 2.68 0 2 C0 1.34 0 0.68 0 0 Z " fill="#4967A2" transform="translate(249,207)"/>
<path d="M0 0 C0.33 0.99 0.66 1.98 1 3 C1.66 2.67 2.32 2.34 3 2 C5.37402501 1.92883618 7.75000677 1.91590915 10.125 1.9375 C11.40632812 1.94652344 12.68765625 1.95554688 14.0078125 1.96484375 C14.99523437 1.97644531 15.98265625 1.98804688 17 2 C17 2.33 17 2.66 17 3 C11.06 3.495 11.06 3.495 5 4 C4.34 5.65 3.68 7.3 3 9 C2.67 9 2.34 9 2 9 C2 7.35 2 5.7 2 4 C1.34 4 0.68 4 0 4 C0 2.68 0 1.36 0 0 Z " fill="#64739A" transform="translate(201,169)"/>
<path d="M0 0 C0.66 0.99 1.32 1.98 2 3 C1.34 3 0.68 3 0 3 C-0.33 3.99 -0.66 4.98 -1 6 C-1.66 6 -2.32 6 -3 6 C-3.33 6.99 -3.66 7.98 -4 9 C-4.33 7.68 -4.66 6.36 -5 5 C-4.34 4.67 -3.68 4.34 -3 4 C-4.32 3.34 -5.64 2.68 -7 2 C-7 1.67 -7 1.34 -7 1 C-3.535 0.505 -3.535 0.505 0 0 Z " fill="#2148A5" transform="translate(204,159)"/>
<path d="M0 0 C0.66 0 1.32 0 2 0 C2.268125 0.639375 2.53625 1.27875 2.8125 1.9375 C3.88667752 4.33131686 3.88667752 4.33131686 7 5 C7 6.32 7 7.64 7 9 C4 9 4 9 1 8 C1.33 7.01 1.66 6.02 2 5 C1.12085312 2.3430809 1.12085312 2.3430809 0 0 Z " fill="#9DA7C7" transform="translate(73,192)"/>
<path d="M0 0 C0.99 0 1.98 0 3 0 C3 2.31 3 4.62 3 7 C2.34 7 1.68 7 1 7 C0.67 7.66 0.34 8.32 0 9 C-0.66 9 -1.32 9 -2 9 C-1.34 6.03 -0.68 3.06 0 0 Z " fill="#E8EAEC" transform="translate(219,172)"/>
<path d="M0 0 C0.66 0.33 1.32 0.66 2 1 C-0.38957269 4.24299151 -2.2047869 6.50902342 -6 8 C-6.33 7.01 -6.66 6.02 -7 5 C-4.69 3.35 -2.38 1.7 0 0 Z " fill="#C0C6D7" transform="translate(191,204)"/>
<path d="M0 0 C2.97 0 5.94 0 9 0 C9 0.99 9 1.98 9 3 C5.04 3 1.08 3 -3 3 C-2.01 2.67 -1.02 2.34 0 2 C0 1.34 0 0.68 0 0 Z " fill="#23419E" transform="translate(239,195)"/>
<path d="M0 0 C1.98 0.495 1.98 0.495 4 1 C3.79375 1.70125 3.5875 2.4025 3.375 3.125 C2.92149643 6.60186072 3.72459723 8.77398123 5 12 C2.37599478 9.62590004 0.55431791 7.18635171 -1 4 C-0.6875 1.6875 -0.6875 1.6875 0 0 Z " fill="#1A3B8A" transform="translate(92,182)"/>
<path d="M0 0 C0.66 0.66 1.32 1.32 2 2 C5.1964086 3.06546953 7.65747276 3.07427838 11 3 C11 3.33 11 3.66 11 4 C2.57142857 6.28571429 2.57142857 6.28571429 -2 6 C-1.34 4.02 -0.68 2.04 0 0 Z " fill="#C8D4EC" transform="translate(122,169)"/>
<path d="M0 0 C0.99 0 1.98 0 3 0 C3.99 2.97 4.98 5.94 6 9 C2.49310059 7.15426347 0.25041941 5.87630016 -1 2 C-0.67 1.34 -0.34 0.68 0 0 Z " fill="#143489" transform="translate(270,165)"/>
<path d="M0 0 C1.65 0 3.3 0 5 0 C4.67 1.65 4.34 3.3 4 5 C2.35 5 0.7 5 -1 5 C-0.67 3.35 -0.34 1.7 0 0 Z " fill="#10318D" transform="translate(214,164)"/>
<path d="M0 0 C0.33 0 0.66 0 1 0 C1 2.31 1 4.62 1 7 C1.66 7 2.32 7 3 7 C1.95125002 9.62187494 1.35068687 10.79371361 -1.125 12.25 C-1.74375 12.4975 -2.3625 12.745 -3 13 C-2.690625 12.34 -2.38125 11.68 -2.0625 11 C-0.75039745 7.29523985 -0.39735865 3.90736009 0 0 Z " fill="#1A42AA" transform="translate(103,153)"/>
<path d="M0 0 C0.66 0.33 1.32 0.66 2 1 C0.02 3.97 0.02 3.97 -2 7 C-0.02 7 1.96 7 4 7 C4 7.33 4 7.66 4 8 C1.36 8 -1.28 8 -4 8 C-3.50168276 4.31245243 -2.89932357 2.39509338 0 0 Z " fill="#142A77" transform="translate(163,220)"/>
<path d="M0 0 C1.65 0.33 3.3 0.66 5 1 C4.67 2.32 4.34 3.64 4 5 C2.35 5 0.7 5 -1 5 C-0.67 3.35 -0.34 1.7 0 0 Z " fill="#36539E" transform="translate(206,156)"/>
<path d="M0 0 C0.12375 0.639375 0.2475 1.27875 0.375 1.9375 C0.58125 2.618125 0.7875 3.29875 1 4 C1.66 4.33 2.32 4.66 3 5 C2.01 6.485 2.01 6.485 1 8 C0.60986284 9.9896995 0.26797351 11.99019869 0 14 C-0.33 14 -0.66 14 -1 14 C-1.02705729 12.22925083 -1.04642195 10.45838289 -1.0625 8.6875 C-1.07410156 7.70136719 -1.08570312 6.71523437 -1.09765625 5.69921875 C-1 3 -1 3 0 0 Z " fill="#0D288A" transform="translate(71,186)"/>
<path d="M0 0 C0.66 0 1.32 0 2 0 C1.67 2.31 1.34 4.62 1 7 C0.01 7 -0.98 7 -2 7 C-2 5.35 -2 3.7 -2 2 C-1.34 2 -0.68 2 0 2 C0 1.34 0 0.68 0 0 Z " fill="#16438E" transform="translate(256,188)"/>
<path d="M0 0 C0.33 3.3 0.66 6.6 1 10 C0.01 9.34 -0.98 8.68 -2 8 C-2.6875 4.375 -2.6875 4.375 -3 1 C-1 0 -1 0 0 0 Z " fill="#A2AECD" transform="translate(213,172)"/>
<path d="M0 0 C0.33 0 0.66 0 1 0 C1.05399736 1.45792884 1.09279177 2.91642712 1.125 4.375 C1.14820313 5.18710938 1.17140625 5.99921875 1.1953125 6.8359375 C1 9 1 9 -1 11 C-1.66 10.67 -2.32 10.34 -3 10 C-2.01 6.7 -1.02 3.4 0 0 Z " fill="#EBEEF0" transform="translate(267,204)"/>
<path d="M0 0 C2.4375 0.375 2.4375 0.375 5 1 C5.33 1.66 5.66 2.32 6 3 C3.6875 4.125 3.6875 4.125 1 5 C0.01 4.34 -0.98 3.68 -2 3 C-1.67 2.34 -1.34 1.68 -1 1 C-0.67 1 -0.34 1 0 1 C0 0.67 0 0.34 0 0 Z " fill="#DDE2EA" transform="translate(78,199)"/>
<path d="M0 0 C0.33 0 0.66 0 1 0 C1 2.31 1 4.62 1 7 C-3.75 8.125 -3.75 8.125 -6 7 C-6 6.34 -6 5.68 -6 5 C-4.125 4.375 -4.125 4.375 -2 4 C-1.34 4.66 -0.68 5.32 0 6 C0 4.02 0 2.04 0 0 Z " fill="#D0D8EE" transform="translate(246,188)"/>
<path d="M0 0 C2.5 1.1875 2.5 1.1875 5 3 C5.3125 5.6875 5.3125 5.6875 5 8 C4.01 8 3.02 8 2 8 C0.74335022 5.09399739 0 3.20395416 0 0 Z " fill="#C0CEE7" transform="translate(268,175)"/>
<path d="M0 0 C0.66 0 1.32 0 2 0 C2.144375 1.11375 2.28875 2.2275 2.4375 3.375 C2.78372035 6.82142047 2.78372035 6.82142047 4 9 C3.01 9.33 2.02 9.66 1 10 C-0.1577506 6.52674819 -0.06866652 3.63932552 0 0 Z " fill="#A4B1D9" transform="translate(201,173)"/>
<path d="M0 0 C0.99 0 1.98 0 3 0 C2.67 3.96 2.34 7.92 2 12 C1.67 12 1.34 12 1 12 C0.63762737 10.37681021 0.28534843 8.7513642 -0.0625 7.125 C-0.25972656 6.22007812 -0.45695313 5.31515625 -0.66015625 4.3828125 C-1 2 -1 2 0 0 Z " fill="#1E2F73" transform="translate(227,161)"/>
<path d="M0 0 C-0.556875 0.268125 -1.11375 0.53625 -1.6875 0.8125 C-4.1972427 2.10128679 -6.5869459 3.53946726 -9 5 C-9.99 5.495 -9.99 5.495 -11 6 C-10.6875 4.125 -10.6875 4.125 -10 2 C-6.3558226 -0.4294516 -4.28758728 -0.16179575 0 0 Z " fill="#1E3282" transform="translate(218,151)"/>
<path d="M0 0 C0.33 0.99 0.66 1.98 1 3 C-1.57213134 4.61949011 -2.67669159 5.04408751 -5.75 4.625 C-6.4925 4.41875 -7.235 4.2125 -8 4 C-5.33440687 2.22293791 -2.9719385 1.12451727 0 0 Z " fill="#3348A5" transform="translate(192,235)"/>
<path d="M0 0 C-0.33 0.99 -0.66 1.98 -1 3 C-2.98 3 -4.96 3 -7 3 C-6.67 2.01 -6.34 1.02 -6 0 C-3.42525708 -0.99667468 -2.51072708 -1.25536354 0 0 Z " fill="#1A3E98" transform="translate(105,191)"/>
<path d="M0 0 C0.99 0.33 1.98 0.66 3 1 C2.67 2.65 2.34 4.3 2 6 C1.01 6.33 0.02 6.66 -1 7 C-0.67 4.69 -0.34 2.38 0 0 Z " fill="#1F3691" transform="translate(195,175)"/>
<path d="M0 0 C0.99 0.33 1.98 0.66 3 1 C1.02 3.97 1.02 3.97 -1 7 C-2.32 6.34 -3.64 5.68 -5 5 C-3.35 4.67 -1.7 4.34 0 4 C0 2.68 0 1.36 0 0 Z " fill="#E4EBEE" transform="translate(90,172)"/>
<path d="M0 0 C0.33 0 0.66 0 1 0 C0.88637738 1.4800841 0.75877092 2.95910074 0.625 4.4375 C0.55539063 5.26121094 0.48578125 6.08492187 0.4140625 6.93359375 C0.27742187 7.61550781 0.14078125 8.29742187 0 9 C-0.99 9.495 -0.99 9.495 -2 10 C-2 9.01 -2 8.02 -2 7 C-2.66 6.67 -3.32 6.34 -4 6 C-3.34 5.67 -2.68 5.34 -2 5 C-1.27840576 3.35636866 -0.60648579 1.68949614 0 0 Z " fill="#1E41A8" transform="translate(129,155)"/>
<path d="M0 0 C0.66 0 1.32 0 2 0 C2.33 1.32 2.66 2.64 3 4 C1.68 4.99 0.36 5.98 -1 7 C-1.66 6.34 -2.32 5.68 -3 5 C-1.625 2.5 -1.625 2.5 0 0 Z " fill="#31499C" transform="translate(233,127)"/>
<path d="M0 0 C-1.485 1.98 -1.485 1.98 -3 4 C-4.65 3.67 -6.3 3.34 -8 3 C-8 2.34 -8 1.68 -8 1 C-5.07175348 0.02391783 -3.04386724 -0.08226668 0 0 Z " fill="#DAE0E2" transform="translate(262,194)"/>
<path d="M0 0 C0.7425 0.33 1.485 0.66 2.25 1 C5.13883312 2.22782871 5.13883312 2.22782871 9 2 C9 2.66 9 3.32 9 4 C7.375 4.6875 7.375 4.6875 5 5 C1.75 3.5625 1.75 3.5625 -1 2 C-0.67 1.34 -0.34 0.68 0 0 Z " fill="#354993" transform="translate(262,170)"/>
<path d="M0 0 C0.66 0 1.32 0 2 0 C1.01 2.97 0.02 5.94 -1 9 C-1.66 8.01 -2.32 7.02 -3 6 C-2.01 4.02 -1.02 2.04 0 0 Z " fill="#95A6CA" transform="translate(121,163)"/>
<path d="M0 0 C0.33 1.32 0.66 2.64 1 4 C1.66 4 2.32 4 3 4 C2.67 4.99 2.34 5.98 2 7 C0.68 7.33 -0.64 7.66 -2 8 C-1.34 5.36 -0.68 2.72 0 0 Z " fill="#5C73AB" transform="translate(107,149)"/>
<path d="M0 0 C0.33 0 0.66 0 1 0 C1.125 2.875 1.125 2.875 1 6 C0.34 6.66 -0.32 7.32 -1 8 C-1.99 8 -2.98 8 -4 8 C-2.87548273 5.0280615 -1.77706209 2.66559313 0 0 Z " fill="#E4EDF2" transform="translate(223,148)"/>
<path d="M0 0 C0.33 0.66 0.66 1.32 1 2 C1.66 2.33 2.32 2.66 3 3 C2.03114628 4.68496298 1.03013277 6.35178756 0 8 C-0.33 8 -0.66 8 -1 8 C-1.625 5.125 -1.625 5.125 -2 2 C-1.34 1.34 -0.68 0.68 0 0 Z " fill="#254797" transform="translate(253,130)"/>
<path d="M0 0 C0 3 0 3 -2.5 5.6875 C-3.325 6.450625 -4.15 7.21375 -5 8 C-5.99 7.67 -6.98 7.34 -8 7 C-7.236875 6.401875 -6.47375 5.80375 -5.6875 5.1875 C-3.6516425 3.53040668 -1.8021721 1.89702326 0 0 Z " fill="#E5EDF0" transform="translate(199,232)"/>
<path d="M0 0 C0.99 0.33 1.98 0.66 3 1 C4.1875 4.5625 4.1875 4.5625 5 8 C2 7 2 7 0.8125 5.125 C0 3 0 3 0 0 Z " fill="#B3BFD0" transform="translate(246,200)"/>
<path d="M0 0 C0.66 0.99 1.32 1.98 2 3 C-0.64 4.98 -3.28 6.96 -6 9 C-4.25618453 5.51236907 -2.47193291 2.96631949 0 0 Z " fill="#CED7EC" transform="translate(101,166)"/>
<path d="M0 0 C1.32 0 2.64 0 4 0 C3.67 1.65 3.34 3.3 3 5 C1.68 4.67 0.36 4.34 -1 4 C-0.67 2.68 -0.34 1.36 0 0 Z " fill="#1C3380" transform="translate(204,165)"/>
<path d="M0 0 C0.99 0 1.98 0 3 0 C2.67 1.98 2.34 3.96 2 6 C1.34 6 0.68 6 0 6 C-0.33 6.66 -0.66 7.32 -1 8 C-0.67 5.36 -0.34 2.72 0 0 Z " fill="#7C90B9" transform="translate(104,145)"/>
<path d="M0 0 C0 2.83967231 -0.40267181 5.23735711 -1 8 C-1.66 7.67 -2.32 7.34 -3 7 C-2.25 2.25 -2.25 2.25 0 0 Z " fill="#F1F4F5" transform="translate(169,218)"/>
<path d="M0 0 C0.99 0 1.98 0 3 0 C2.75 1.875 2.75 1.875 2 4 C-0.0625 5.25 -0.0625 5.25 -2 6 C-1.125 1.125 -1.125 1.125 0 0 Z " fill="#8E9DBE" transform="translate(244,172)"/>
<path d="M0 0 C0.33 0.66 0.66 1.32 1 2 C1.66 2.33 2.32 2.66 3 3 C2.01 3 1.02 3 0 3 C0 3.66 0 4.32 0 5 C-1.98 5.33 -3.96 5.66 -6 6 C-4.71034824 4.62437146 -3.37310707 3.29233607 -2 2 C-1.34 2 -0.68 2 0 2 C0 1.34 0 0.68 0 0 Z " fill="#324F9F" transform="translate(118,173)"/>
<path d="M0 0 C0 3 0 3 -1.3125 4.38671875 C-2.875 5.59114583 -4.4375 6.79557292 -6 8 C-6 5 -6 5 -4.6875 3.61328125 C-3.125 2.40885417 -1.5625 1.20442708 0 0 Z " fill="#6275A5" transform="translate(98,172)"/>
<path d="M0 0 C0.33 0.99 0.66 1.98 1 3 C-2.26760563 8.63380282 -2.26760563 8.63380282 -5 10 C-3.66511872 6.40608886 -2.03977277 3.24509304 0 0 Z " fill="#D9E4EE" transform="translate(229,138)"/>
<path d="M0 0 C0.66 0 1.32 0 2 0 C2.33 0.99 2.66 1.98 3 3 C2.67 3.66 2.34 4.32 2 5 C1.34 5 0.68 5 0 5 C-0.33 5.66 -0.66 6.32 -1 7 C-2 4 -2 4 -1.0625 1.8125 C-0.5365625 0.9153125 -0.5365625 0.9153125 0 0 Z " fill="#1C41A1" transform="translate(265,125)"/>
</svg>
